<mxfile host="app.diagrams.net" modified="2022-03-27T23:40:55.348Z" agent="5.0 (Macintosh; Intel Mac OS X 10_15_7) AppleWebKit/537.36 (KHTML, like Gecko) Chrome/99.0.4844.83 Safari/537.36" etag="wzGu4ybEPdPrlw59rV0l" version="17.2.4" type="github">
  <diagram id="BbuX6d9MuGe36eEdIn-_" name="Page-1">
    <mxGraphModel dx="946" dy="646" grid="1" gridSize="10" guides="1" tooltips="1" connect="1" arrows="1" fold="1" page="1" pageScale="1" pageWidth="827" pageHeight="1169" math="0" shadow="0">
      <root>
        <mxCell id="0" />
        <mxCell id="1" parent="0" />
        <mxCell id="MEUeXcoPpYQQ2M0SvhKJ-1" value="&lt;font style=&quot;font-size: 18px&quot;&gt;1&lt;/font&gt;" style="ellipse;whiteSpace=wrap;html=1;aspect=fixed;fillColor=#d5e8d4;strokeColor=#82b366;" parent="1" vertex="1">
          <mxGeometry x="160" y="200" width="40" height="40" as="geometry" />
        </mxCell>
        <mxCell id="MEUeXcoPpYQQ2M0SvhKJ-3" value="&lt;span style=&quot;font-size: 18px&quot;&gt;2&lt;/span&gt;" style="ellipse;whiteSpace=wrap;html=1;aspect=fixed;fillColor=#d5e8d4;strokeColor=#82b366;" parent="1" vertex="1">
          <mxGeometry x="160" y="320" width="40" height="40" as="geometry" />
        </mxCell>
        <mxCell id="MEUeXcoPpYQQ2M0SvhKJ-4" value="&lt;font style=&quot;font-size: 18px&quot;&gt;4&lt;/font&gt;" style="ellipse;whiteSpace=wrap;html=1;aspect=fixed;fillColor=#d5e8d4;strokeColor=#82b366;" parent="1" vertex="1">
          <mxGeometry x="320" y="200" width="40" height="40" as="geometry" />
        </mxCell>
        <mxCell id="MEUeXcoPpYQQ2M0SvhKJ-5" value="&lt;font style=&quot;font-size: 18px&quot;&gt;3&lt;/font&gt;" style="ellipse;whiteSpace=wrap;html=1;aspect=fixed;fillColor=#d5e8d4;strokeColor=#82b366;" parent="1" vertex="1">
          <mxGeometry x="320" y="320" width="40" height="40" as="geometry" />
        </mxCell>
        <mxCell id="MEUeXcoPpYQQ2M0SvhKJ-6" value="" style="endArrow=classic;html=1;rounded=0;fontSize=18;exitX=0.243;exitY=0.946;exitDx=0;exitDy=0;exitPerimeter=0;entryX=0.241;entryY=0.068;entryDx=0;entryDy=0;entryPerimeter=0;" parent="1" source="MEUeXcoPpYQQ2M0SvhKJ-1" target="MEUeXcoPpYQQ2M0SvhKJ-3" edge="1">
          <mxGeometry width="50" height="50" relative="1" as="geometry">
            <mxPoint x="290" y="340" as="sourcePoint" />
            <mxPoint x="340" y="290" as="targetPoint" />
          </mxGeometry>
        </mxCell>
        <mxCell id="MEUeXcoPpYQQ2M0SvhKJ-14" value="5" style="edgeLabel;html=1;align=center;verticalAlign=middle;resizable=0;points=[];fontSize=18;" parent="MEUeXcoPpYQQ2M0SvhKJ-6" vertex="1" connectable="0">
          <mxGeometry x="-0.0773" relative="1" as="geometry">
            <mxPoint as="offset" />
          </mxGeometry>
        </mxCell>
        <mxCell id="MEUeXcoPpYQQ2M0SvhKJ-7" value="" style="endArrow=classic;html=1;rounded=0;fontSize=18;exitX=0.299;exitY=0.959;exitDx=0;exitDy=0;exitPerimeter=0;entryX=0.303;entryY=0.036;entryDx=0;entryDy=0;entryPerimeter=0;" parent="1" source="MEUeXcoPpYQQ2M0SvhKJ-4" target="MEUeXcoPpYQQ2M0SvhKJ-5" edge="1">
          <mxGeometry width="50" height="50" relative="1" as="geometry">
            <mxPoint x="330.08000000000004" y="235.12000000000003" as="sourcePoint" />
            <mxPoint x="330.00000000000006" y="320" as="targetPoint" />
          </mxGeometry>
        </mxCell>
        <mxCell id="MEUeXcoPpYQQ2M0SvhKJ-18" value="5" style="edgeLabel;html=1;align=center;verticalAlign=middle;resizable=0;points=[];fontSize=18;" parent="MEUeXcoPpYQQ2M0SvhKJ-7" vertex="1" connectable="0">
          <mxGeometry x="-0.1982" y="-1" relative="1" as="geometry">
            <mxPoint as="offset" />
          </mxGeometry>
        </mxCell>
        <mxCell id="MEUeXcoPpYQQ2M0SvhKJ-8" value="" style="endArrow=classic;html=1;rounded=0;fontSize=18;exitX=0.621;exitY=-0.013;exitDx=0;exitDy=0;exitPerimeter=0;entryX=0.65;entryY=0.987;entryDx=0;entryDy=0;entryPerimeter=0;" parent="1" source="MEUeXcoPpYQQ2M0SvhKJ-3" target="MEUeXcoPpYQQ2M0SvhKJ-1" edge="1">
          <mxGeometry width="50" height="50" relative="1" as="geometry">
            <mxPoint x="230" y="330" as="sourcePoint" />
            <mxPoint x="280" y="280" as="targetPoint" />
          </mxGeometry>
        </mxCell>
        <mxCell id="MEUeXcoPpYQQ2M0SvhKJ-15" value="50" style="edgeLabel;html=1;align=center;verticalAlign=middle;resizable=0;points=[];fontSize=18;" parent="MEUeXcoPpYQQ2M0SvhKJ-8" vertex="1" connectable="0">
          <mxGeometry x="-0.0267" y="-1" relative="1" as="geometry">
            <mxPoint as="offset" />
          </mxGeometry>
        </mxCell>
        <mxCell id="MEUeXcoPpYQQ2M0SvhKJ-9" value="" style="endArrow=classic;html=1;rounded=0;fontSize=18;exitX=0.719;exitY=0.035;exitDx=0;exitDy=0;exitPerimeter=0;entryX=0.719;entryY=0.965;entryDx=0;entryDy=0;entryPerimeter=0;" parent="1" source="MEUeXcoPpYQQ2M0SvhKJ-5" target="MEUeXcoPpYQQ2M0SvhKJ-4" edge="1">
          <mxGeometry width="50" height="50" relative="1" as="geometry">
            <mxPoint x="350" y="320" as="sourcePoint" />
            <mxPoint x="351.15999999999997" y="240.00000000000003" as="targetPoint" />
          </mxGeometry>
        </mxCell>
        <mxCell id="MEUeXcoPpYQQ2M0SvhKJ-19" value="15" style="edgeLabel;html=1;align=center;verticalAlign=middle;resizable=0;points=[];fontSize=18;" parent="MEUeXcoPpYQQ2M0SvhKJ-9" vertex="1" connectable="0">
          <mxGeometry x="0.0832" relative="1" as="geometry">
            <mxPoint as="offset" />
          </mxGeometry>
        </mxCell>
        <mxCell id="MEUeXcoPpYQQ2M0SvhKJ-10" value="" style="endArrow=classic;html=1;rounded=0;fontSize=18;entryX=1;entryY=0.5;entryDx=0;entryDy=0;exitX=0;exitY=0.5;exitDx=0;exitDy=0;" parent="1" source="MEUeXcoPpYQQ2M0SvhKJ-4" target="MEUeXcoPpYQQ2M0SvhKJ-1" edge="1">
          <mxGeometry width="50" height="50" relative="1" as="geometry">
            <mxPoint x="270" y="320" as="sourcePoint" />
            <mxPoint x="320" y="270" as="targetPoint" />
          </mxGeometry>
        </mxCell>
        <mxCell id="MEUeXcoPpYQQ2M0SvhKJ-16" value="15" style="edgeLabel;html=1;align=center;verticalAlign=middle;resizable=0;points=[];fontSize=18;" parent="MEUeXcoPpYQQ2M0SvhKJ-10" vertex="1" connectable="0">
          <mxGeometry x="0.0407" y="-1" relative="1" as="geometry">
            <mxPoint as="offset" />
          </mxGeometry>
        </mxCell>
        <mxCell id="MEUeXcoPpYQQ2M0SvhKJ-11" value="" style="endArrow=classic;html=1;rounded=0;fontSize=18;entryX=0;entryY=0.5;entryDx=0;entryDy=0;exitX=1;exitY=0.5;exitDx=0;exitDy=0;" parent="1" source="MEUeXcoPpYQQ2M0SvhKJ-3" target="MEUeXcoPpYQQ2M0SvhKJ-5" edge="1">
          <mxGeometry width="50" height="50" relative="1" as="geometry">
            <mxPoint x="330" y="300" as="sourcePoint" />
            <mxPoint x="210" y="300" as="targetPoint" />
          </mxGeometry>
        </mxCell>
        <mxCell id="MEUeXcoPpYQQ2M0SvhKJ-17" value="15" style="edgeLabel;html=1;align=center;verticalAlign=middle;resizable=0;points=[];fontSize=18;" parent="MEUeXcoPpYQQ2M0SvhKJ-11" vertex="1" connectable="0">
          <mxGeometry x="-0.0259" y="1" relative="1" as="geometry">
            <mxPoint as="offset" />
          </mxGeometry>
        </mxCell>
        <mxCell id="MEUeXcoPpYQQ2M0SvhKJ-12" value="" style="endArrow=classic;html=1;rounded=0;fontSize=18;exitX=1;exitY=0;exitDx=0;exitDy=0;entryX=0;entryY=1;entryDx=0;entryDy=0;" parent="1" source="MEUeXcoPpYQQ2M0SvhKJ-3" target="MEUeXcoPpYQQ2M0SvhKJ-4" edge="1">
          <mxGeometry width="50" height="50" relative="1" as="geometry">
            <mxPoint x="310" y="290" as="sourcePoint" />
            <mxPoint x="360" y="240" as="targetPoint" />
          </mxGeometry>
        </mxCell>
        <mxCell id="MEUeXcoPpYQQ2M0SvhKJ-21" value="5" style="edgeLabel;html=1;align=center;verticalAlign=middle;resizable=0;points=[];fontSize=18;" parent="MEUeXcoPpYQQ2M0SvhKJ-12" vertex="1" connectable="0">
          <mxGeometry x="0.349" y="1" relative="1" as="geometry">
            <mxPoint as="offset" />
          </mxGeometry>
        </mxCell>
        <mxCell id="MEUeXcoPpYQQ2M0SvhKJ-13" value="" style="endArrow=classic;html=1;rounded=0;fontSize=18;entryX=1;entryY=1;entryDx=0;entryDy=0;exitX=0;exitY=0;exitDx=0;exitDy=0;" parent="1" source="MEUeXcoPpYQQ2M0SvhKJ-5" target="MEUeXcoPpYQQ2M0SvhKJ-1" edge="1">
          <mxGeometry width="50" height="50" relative="1" as="geometry">
            <mxPoint x="310" y="290" as="sourcePoint" />
            <mxPoint x="360" y="240" as="targetPoint" />
          </mxGeometry>
        </mxCell>
        <mxCell id="MEUeXcoPpYQQ2M0SvhKJ-20" value="30" style="edgeLabel;html=1;align=center;verticalAlign=middle;resizable=0;points=[];fontSize=18;" parent="MEUeXcoPpYQQ2M0SvhKJ-13" vertex="1" connectable="0">
          <mxGeometry x="0.3531" y="1" relative="1" as="geometry">
            <mxPoint as="offset" />
          </mxGeometry>
        </mxCell>
        <mxCell id="MEUeXcoPpYQQ2M0SvhKJ-22" value="" style="shape=table;html=1;whiteSpace=wrap;startSize=0;container=1;collapsible=0;childLayout=tableLayout;fontSize=18;" parent="1" vertex="1">
          <mxGeometry x="805" y="630" width="240" height="160" as="geometry" />
        </mxCell>
        <mxCell id="MEUeXcoPpYQQ2M0SvhKJ-23" value="" style="shape=tableRow;horizontal=0;startSize=0;swimlaneHead=0;swimlaneBody=0;top=0;left=0;bottom=0;right=0;collapsible=0;dropTarget=0;fillColor=none;points=[[0,0.5],[1,0.5]];portConstraint=eastwest;fontSize=18;" parent="MEUeXcoPpYQQ2M0SvhKJ-22" vertex="1">
          <mxGeometry width="240" height="40" as="geometry" />
        </mxCell>
        <mxCell id="MEUeXcoPpYQQ2M0SvhKJ-24" value="0" style="shape=partialRectangle;html=1;whiteSpace=wrap;connectable=0;fillColor=none;top=0;left=0;bottom=0;right=0;overflow=hidden;fontSize=18;" parent="MEUeXcoPpYQQ2M0SvhKJ-23" vertex="1">
          <mxGeometry width="60" height="40" as="geometry">
            <mxRectangle width="60" height="40" as="alternateBounds" />
          </mxGeometry>
        </mxCell>
        <mxCell id="MEUeXcoPpYQQ2M0SvhKJ-25" value="5" style="shape=partialRectangle;html=1;whiteSpace=wrap;connectable=0;fillColor=none;top=0;left=0;bottom=0;right=0;overflow=hidden;fontSize=18;" parent="MEUeXcoPpYQQ2M0SvhKJ-23" vertex="1">
          <mxGeometry x="60" width="60" height="40" as="geometry">
            <mxRectangle width="60" height="40" as="alternateBounds" />
          </mxGeometry>
        </mxCell>
        <mxCell id="MEUeXcoPpYQQ2M0SvhKJ-26" value="INF" style="shape=partialRectangle;html=1;whiteSpace=wrap;connectable=0;fillColor=none;top=0;left=0;bottom=0;right=0;overflow=hidden;fontSize=18;" parent="MEUeXcoPpYQQ2M0SvhKJ-23" vertex="1">
          <mxGeometry x="120" width="60" height="40" as="geometry">
            <mxRectangle width="60" height="40" as="alternateBounds" />
          </mxGeometry>
        </mxCell>
        <mxCell id="MEUeXcoPpYQQ2M0SvhKJ-56" value="INF" style="shape=partialRectangle;html=1;whiteSpace=wrap;connectable=0;fillColor=none;top=0;left=0;bottom=0;right=0;overflow=hidden;fontSize=18;" parent="MEUeXcoPpYQQ2M0SvhKJ-23" vertex="1">
          <mxGeometry x="180" width="60" height="40" as="geometry">
            <mxRectangle width="60" height="40" as="alternateBounds" />
          </mxGeometry>
        </mxCell>
        <mxCell id="MEUeXcoPpYQQ2M0SvhKJ-27" value="" style="shape=tableRow;horizontal=0;startSize=0;swimlaneHead=0;swimlaneBody=0;top=0;left=0;bottom=0;right=0;collapsible=0;dropTarget=0;fillColor=none;points=[[0,0.5],[1,0.5]];portConstraint=eastwest;fontSize=18;" parent="MEUeXcoPpYQQ2M0SvhKJ-22" vertex="1">
          <mxGeometry y="40" width="240" height="40" as="geometry" />
        </mxCell>
        <mxCell id="MEUeXcoPpYQQ2M0SvhKJ-28" value="50" style="shape=partialRectangle;html=1;whiteSpace=wrap;connectable=0;fillColor=none;top=0;left=0;bottom=0;right=0;overflow=hidden;fontSize=18;" parent="MEUeXcoPpYQQ2M0SvhKJ-27" vertex="1">
          <mxGeometry width="60" height="40" as="geometry">
            <mxRectangle width="60" height="40" as="alternateBounds" />
          </mxGeometry>
        </mxCell>
        <mxCell id="MEUeXcoPpYQQ2M0SvhKJ-29" value="0" style="shape=partialRectangle;html=1;whiteSpace=wrap;connectable=0;fillColor=none;top=0;left=0;bottom=0;right=0;overflow=hidden;fontSize=18;" parent="MEUeXcoPpYQQ2M0SvhKJ-27" vertex="1">
          <mxGeometry x="60" width="60" height="40" as="geometry">
            <mxRectangle width="60" height="40" as="alternateBounds" />
          </mxGeometry>
        </mxCell>
        <mxCell id="MEUeXcoPpYQQ2M0SvhKJ-30" value="15" style="shape=partialRectangle;html=1;whiteSpace=wrap;connectable=0;fillColor=none;top=0;left=0;bottom=0;right=0;overflow=hidden;fontSize=18;" parent="MEUeXcoPpYQQ2M0SvhKJ-27" vertex="1">
          <mxGeometry x="120" width="60" height="40" as="geometry">
            <mxRectangle width="60" height="40" as="alternateBounds" />
          </mxGeometry>
        </mxCell>
        <mxCell id="MEUeXcoPpYQQ2M0SvhKJ-57" value="5" style="shape=partialRectangle;html=1;whiteSpace=wrap;connectable=0;fillColor=none;top=0;left=0;bottom=0;right=0;overflow=hidden;fontSize=18;" parent="MEUeXcoPpYQQ2M0SvhKJ-27" vertex="1">
          <mxGeometry x="180" width="60" height="40" as="geometry">
            <mxRectangle width="60" height="40" as="alternateBounds" />
          </mxGeometry>
        </mxCell>
        <mxCell id="MEUeXcoPpYQQ2M0SvhKJ-59" style="shape=tableRow;horizontal=0;startSize=0;swimlaneHead=0;swimlaneBody=0;top=0;left=0;bottom=0;right=0;collapsible=0;dropTarget=0;fillColor=none;points=[[0,0.5],[1,0.5]];portConstraint=eastwest;fontSize=18;" parent="MEUeXcoPpYQQ2M0SvhKJ-22" vertex="1">
          <mxGeometry y="80" width="240" height="40" as="geometry" />
        </mxCell>
        <mxCell id="MEUeXcoPpYQQ2M0SvhKJ-60" value="30" style="shape=partialRectangle;html=1;whiteSpace=wrap;connectable=0;fillColor=none;top=0;left=0;bottom=0;right=0;overflow=hidden;fontSize=18;" parent="MEUeXcoPpYQQ2M0SvhKJ-59" vertex="1">
          <mxGeometry width="60" height="40" as="geometry">
            <mxRectangle width="60" height="40" as="alternateBounds" />
          </mxGeometry>
        </mxCell>
        <mxCell id="MEUeXcoPpYQQ2M0SvhKJ-61" value="INF" style="shape=partialRectangle;html=1;whiteSpace=wrap;connectable=0;fillColor=none;top=0;left=0;bottom=0;right=0;overflow=hidden;fontSize=18;" parent="MEUeXcoPpYQQ2M0SvhKJ-59" vertex="1">
          <mxGeometry x="60" width="60" height="40" as="geometry">
            <mxRectangle width="60" height="40" as="alternateBounds" />
          </mxGeometry>
        </mxCell>
        <mxCell id="MEUeXcoPpYQQ2M0SvhKJ-62" value="0" style="shape=partialRectangle;html=1;whiteSpace=wrap;connectable=0;fillColor=none;top=0;left=0;bottom=0;right=0;overflow=hidden;fontSize=18;" parent="MEUeXcoPpYQQ2M0SvhKJ-59" vertex="1">
          <mxGeometry x="120" width="60" height="40" as="geometry">
            <mxRectangle width="60" height="40" as="alternateBounds" />
          </mxGeometry>
        </mxCell>
        <mxCell id="MEUeXcoPpYQQ2M0SvhKJ-63" value="15" style="shape=partialRectangle;html=1;whiteSpace=wrap;connectable=0;fillColor=none;top=0;left=0;bottom=0;right=0;overflow=hidden;fontSize=18;" parent="MEUeXcoPpYQQ2M0SvhKJ-59" vertex="1">
          <mxGeometry x="180" width="60" height="40" as="geometry">
            <mxRectangle width="60" height="40" as="alternateBounds" />
          </mxGeometry>
        </mxCell>
        <mxCell id="MEUeXcoPpYQQ2M0SvhKJ-31" value="" style="shape=tableRow;horizontal=0;startSize=0;swimlaneHead=0;swimlaneBody=0;top=0;left=0;bottom=0;right=0;collapsible=0;dropTarget=0;fillColor=none;points=[[0,0.5],[1,0.5]];portConstraint=eastwest;fontSize=18;" parent="MEUeXcoPpYQQ2M0SvhKJ-22" vertex="1">
          <mxGeometry y="120" width="240" height="40" as="geometry" />
        </mxCell>
        <mxCell id="MEUeXcoPpYQQ2M0SvhKJ-32" value="15" style="shape=partialRectangle;html=1;whiteSpace=wrap;connectable=0;fillColor=none;top=0;left=0;bottom=0;right=0;overflow=hidden;fontSize=18;" parent="MEUeXcoPpYQQ2M0SvhKJ-31" vertex="1">
          <mxGeometry width="60" height="40" as="geometry">
            <mxRectangle width="60" height="40" as="alternateBounds" />
          </mxGeometry>
        </mxCell>
        <mxCell id="MEUeXcoPpYQQ2M0SvhKJ-33" value="INF" style="shape=partialRectangle;html=1;whiteSpace=wrap;connectable=0;fillColor=none;top=0;left=0;bottom=0;right=0;overflow=hidden;fontSize=18;" parent="MEUeXcoPpYQQ2M0SvhKJ-31" vertex="1">
          <mxGeometry x="60" width="60" height="40" as="geometry">
            <mxRectangle width="60" height="40" as="alternateBounds" />
          </mxGeometry>
        </mxCell>
        <mxCell id="MEUeXcoPpYQQ2M0SvhKJ-34" value="5" style="shape=partialRectangle;html=1;whiteSpace=wrap;connectable=0;fillColor=none;top=0;left=0;bottom=0;right=0;overflow=hidden;pointerEvents=1;fontSize=18;" parent="MEUeXcoPpYQQ2M0SvhKJ-31" vertex="1">
          <mxGeometry x="120" width="60" height="40" as="geometry">
            <mxRectangle width="60" height="40" as="alternateBounds" />
          </mxGeometry>
        </mxCell>
        <mxCell id="MEUeXcoPpYQQ2M0SvhKJ-58" value="0" style="shape=partialRectangle;html=1;whiteSpace=wrap;connectable=0;fillColor=none;top=0;left=0;bottom=0;right=0;overflow=hidden;pointerEvents=1;fontSize=18;" parent="MEUeXcoPpYQQ2M0SvhKJ-31" vertex="1">
          <mxGeometry x="180" width="60" height="40" as="geometry">
            <mxRectangle width="60" height="40" as="alternateBounds" />
          </mxGeometry>
        </mxCell>
        <mxCell id="MEUeXcoPpYQQ2M0SvhKJ-35" value="" style="endArrow=none;html=1;rounded=0;fontSize=18;" parent="1" edge="1">
          <mxGeometry width="50" height="50" relative="1" as="geometry">
            <mxPoint x="40" y="400" as="sourcePoint" />
            <mxPoint x="1121.1764705882354" y="400" as="targetPoint" />
          </mxGeometry>
        </mxCell>
        <mxCell id="MEUeXcoPpYQQ2M0SvhKJ-36" value="&lt;font style=&quot;font-size: 18px&quot;&gt;1&lt;/font&gt;" style="ellipse;whiteSpace=wrap;html=1;aspect=fixed;fillColor=#d5e8d4;strokeColor=#82b366;" parent="1" vertex="1">
          <mxGeometry x="130" y="620" width="40" height="40" as="geometry" />
        </mxCell>
        <mxCell id="MEUeXcoPpYQQ2M0SvhKJ-37" value="&lt;span style=&quot;font-size: 18px&quot;&gt;2&lt;/span&gt;" style="ellipse;whiteSpace=wrap;html=1;aspect=fixed;fillColor=#d5e8d4;strokeColor=#82b366;" parent="1" vertex="1">
          <mxGeometry x="130" y="740" width="40" height="40" as="geometry" />
        </mxCell>
        <mxCell id="MEUeXcoPpYQQ2M0SvhKJ-38" value="&lt;font style=&quot;font-size: 18px&quot;&gt;4&lt;/font&gt;" style="ellipse;whiteSpace=wrap;html=1;aspect=fixed;fillColor=#d5e8d4;strokeColor=#82b366;" parent="1" vertex="1">
          <mxGeometry x="290" y="620" width="40" height="40" as="geometry" />
        </mxCell>
        <mxCell id="MEUeXcoPpYQQ2M0SvhKJ-39" value="&lt;font style=&quot;font-size: 18px&quot;&gt;3&lt;/font&gt;" style="ellipse;whiteSpace=wrap;html=1;aspect=fixed;fillColor=#d5e8d4;strokeColor=#82b366;" parent="1" vertex="1">
          <mxGeometry x="290" y="740" width="40" height="40" as="geometry" />
        </mxCell>
        <mxCell id="MEUeXcoPpYQQ2M0SvhKJ-40" value="" style="endArrow=classic;html=1;rounded=0;fontSize=18;exitX=0.243;exitY=0.946;exitDx=0;exitDy=0;exitPerimeter=0;entryX=0.241;entryY=0.068;entryDx=0;entryDy=0;entryPerimeter=0;" parent="1" source="MEUeXcoPpYQQ2M0SvhKJ-36" target="MEUeXcoPpYQQ2M0SvhKJ-37" edge="1">
          <mxGeometry width="50" height="50" relative="1" as="geometry">
            <mxPoint x="260" y="760" as="sourcePoint" />
            <mxPoint x="310" y="710" as="targetPoint" />
          </mxGeometry>
        </mxCell>
        <mxCell id="MEUeXcoPpYQQ2M0SvhKJ-41" value="5" style="edgeLabel;html=1;align=center;verticalAlign=middle;resizable=0;points=[];fontSize=18;" parent="MEUeXcoPpYQQ2M0SvhKJ-40" vertex="1" connectable="0">
          <mxGeometry x="-0.0773" relative="1" as="geometry">
            <mxPoint as="offset" />
          </mxGeometry>
        </mxCell>
        <mxCell id="MEUeXcoPpYQQ2M0SvhKJ-42" value="" style="endArrow=classic;html=1;rounded=0;fontSize=18;exitX=0.299;exitY=0.959;exitDx=0;exitDy=0;exitPerimeter=0;entryX=0.303;entryY=0.036;entryDx=0;entryDy=0;entryPerimeter=0;" parent="1" source="MEUeXcoPpYQQ2M0SvhKJ-38" target="MEUeXcoPpYQQ2M0SvhKJ-39" edge="1">
          <mxGeometry width="50" height="50" relative="1" as="geometry">
            <mxPoint x="300.08000000000004" y="655.12" as="sourcePoint" />
            <mxPoint x="300.00000000000006" y="740" as="targetPoint" />
          </mxGeometry>
        </mxCell>
        <mxCell id="MEUeXcoPpYQQ2M0SvhKJ-43" value="5" style="edgeLabel;html=1;align=center;verticalAlign=middle;resizable=0;points=[];fontSize=18;" parent="MEUeXcoPpYQQ2M0SvhKJ-42" vertex="1" connectable="0">
          <mxGeometry x="-0.1982" y="-1" relative="1" as="geometry">
            <mxPoint as="offset" />
          </mxGeometry>
        </mxCell>
        <mxCell id="MEUeXcoPpYQQ2M0SvhKJ-44" value="" style="endArrow=classic;html=1;rounded=0;fontSize=18;exitX=0.621;exitY=-0.013;exitDx=0;exitDy=0;exitPerimeter=0;entryX=0.65;entryY=0.987;entryDx=0;entryDy=0;entryPerimeter=0;" parent="1" source="MEUeXcoPpYQQ2M0SvhKJ-37" target="MEUeXcoPpYQQ2M0SvhKJ-36" edge="1">
          <mxGeometry width="50" height="50" relative="1" as="geometry">
            <mxPoint x="200" y="750" as="sourcePoint" />
            <mxPoint x="250" y="700" as="targetPoint" />
          </mxGeometry>
        </mxCell>
        <mxCell id="MEUeXcoPpYQQ2M0SvhKJ-45" value="50" style="edgeLabel;html=1;align=center;verticalAlign=middle;resizable=0;points=[];fontSize=18;" parent="MEUeXcoPpYQQ2M0SvhKJ-44" vertex="1" connectable="0">
          <mxGeometry x="-0.0267" y="-1" relative="1" as="geometry">
            <mxPoint as="offset" />
          </mxGeometry>
        </mxCell>
        <mxCell id="MEUeXcoPpYQQ2M0SvhKJ-46" value="" style="endArrow=classic;html=1;rounded=0;fontSize=18;exitX=0.719;exitY=0.035;exitDx=0;exitDy=0;exitPerimeter=0;entryX=0.719;entryY=0.965;entryDx=0;entryDy=0;entryPerimeter=0;" parent="1" source="MEUeXcoPpYQQ2M0SvhKJ-39" target="MEUeXcoPpYQQ2M0SvhKJ-38" edge="1">
          <mxGeometry width="50" height="50" relative="1" as="geometry">
            <mxPoint x="320" y="740" as="sourcePoint" />
            <mxPoint x="321.15999999999997" y="660" as="targetPoint" />
          </mxGeometry>
        </mxCell>
        <mxCell id="MEUeXcoPpYQQ2M0SvhKJ-47" value="15" style="edgeLabel;html=1;align=center;verticalAlign=middle;resizable=0;points=[];fontSize=18;" parent="MEUeXcoPpYQQ2M0SvhKJ-46" vertex="1" connectable="0">
          <mxGeometry x="0.0832" relative="1" as="geometry">
            <mxPoint as="offset" />
          </mxGeometry>
        </mxCell>
        <mxCell id="MEUeXcoPpYQQ2M0SvhKJ-48" value="" style="endArrow=classic;html=1;rounded=0;fontSize=18;entryX=1;entryY=0.5;entryDx=0;entryDy=0;exitX=0;exitY=0.5;exitDx=0;exitDy=0;" parent="1" source="MEUeXcoPpYQQ2M0SvhKJ-38" target="MEUeXcoPpYQQ2M0SvhKJ-36" edge="1">
          <mxGeometry width="50" height="50" relative="1" as="geometry">
            <mxPoint x="240" y="740" as="sourcePoint" />
            <mxPoint x="290" y="690" as="targetPoint" />
          </mxGeometry>
        </mxCell>
        <mxCell id="MEUeXcoPpYQQ2M0SvhKJ-49" value="15" style="edgeLabel;html=1;align=center;verticalAlign=middle;resizable=0;points=[];fontSize=18;" parent="MEUeXcoPpYQQ2M0SvhKJ-48" vertex="1" connectable="0">
          <mxGeometry x="0.0407" y="-1" relative="1" as="geometry">
            <mxPoint as="offset" />
          </mxGeometry>
        </mxCell>
        <mxCell id="MEUeXcoPpYQQ2M0SvhKJ-50" value="" style="endArrow=classic;html=1;rounded=0;fontSize=18;entryX=0;entryY=0.5;entryDx=0;entryDy=0;exitX=1;exitY=0.5;exitDx=0;exitDy=0;" parent="1" source="MEUeXcoPpYQQ2M0SvhKJ-37" target="MEUeXcoPpYQQ2M0SvhKJ-39" edge="1">
          <mxGeometry width="50" height="50" relative="1" as="geometry">
            <mxPoint x="300" y="720" as="sourcePoint" />
            <mxPoint x="180" y="720" as="targetPoint" />
          </mxGeometry>
        </mxCell>
        <mxCell id="MEUeXcoPpYQQ2M0SvhKJ-51" value="15" style="edgeLabel;html=1;align=center;verticalAlign=middle;resizable=0;points=[];fontSize=18;" parent="MEUeXcoPpYQQ2M0SvhKJ-50" vertex="1" connectable="0">
          <mxGeometry x="-0.0259" y="1" relative="1" as="geometry">
            <mxPoint as="offset" />
          </mxGeometry>
        </mxCell>
        <mxCell id="MEUeXcoPpYQQ2M0SvhKJ-52" value="" style="endArrow=classic;html=1;rounded=0;fontSize=18;exitX=1;exitY=0;exitDx=0;exitDy=0;entryX=0;entryY=1;entryDx=0;entryDy=0;" parent="1" source="MEUeXcoPpYQQ2M0SvhKJ-37" target="MEUeXcoPpYQQ2M0SvhKJ-38" edge="1">
          <mxGeometry width="50" height="50" relative="1" as="geometry">
            <mxPoint x="280" y="710" as="sourcePoint" />
            <mxPoint x="330" y="660" as="targetPoint" />
          </mxGeometry>
        </mxCell>
        <mxCell id="MEUeXcoPpYQQ2M0SvhKJ-53" value="5" style="edgeLabel;html=1;align=center;verticalAlign=middle;resizable=0;points=[];fontSize=18;" parent="MEUeXcoPpYQQ2M0SvhKJ-52" vertex="1" connectable="0">
          <mxGeometry x="0.349" y="1" relative="1" as="geometry">
            <mxPoint as="offset" />
          </mxGeometry>
        </mxCell>
        <mxCell id="MEUeXcoPpYQQ2M0SvhKJ-54" value="" style="endArrow=classic;html=1;rounded=0;fontSize=18;entryX=1;entryY=1;entryDx=0;entryDy=0;exitX=0;exitY=0;exitDx=0;exitDy=0;" parent="1" source="MEUeXcoPpYQQ2M0SvhKJ-39" target="MEUeXcoPpYQQ2M0SvhKJ-36" edge="1">
          <mxGeometry width="50" height="50" relative="1" as="geometry">
            <mxPoint x="280" y="710" as="sourcePoint" />
            <mxPoint x="330" y="660" as="targetPoint" />
          </mxGeometry>
        </mxCell>
        <mxCell id="MEUeXcoPpYQQ2M0SvhKJ-55" value="30" style="edgeLabel;html=1;align=center;verticalAlign=middle;resizable=0;points=[];fontSize=18;" parent="MEUeXcoPpYQQ2M0SvhKJ-54" vertex="1" connectable="0">
          <mxGeometry x="0.3531" y="1" relative="1" as="geometry">
            <mxPoint as="offset" />
          </mxGeometry>
        </mxCell>
        <mxCell id="MEUeXcoPpYQQ2M0SvhKJ-64" value="A&lt;sup&gt;0&lt;/sup&gt;&lt;sub&gt;&amp;nbsp;&lt;/sub&gt;=" style="text;html=1;align=center;verticalAlign=middle;resizable=0;points=[];autosize=1;strokeColor=none;fillColor=none;fontSize=18;" parent="1" vertex="1">
          <mxGeometry x="730" y="685" width="50" height="40" as="geometry" />
        </mxCell>
        <mxCell id="MEUeXcoPpYQQ2M0SvhKJ-70" value="&lt;span style=&quot;box-sizing: border-box ; color: rgb(51 , 51 , 51) ; font-family: &amp;#34;poppins&amp;#34; , sans-serif ; font-size: 16px ; text-align: left ; background-color: rgb(255 , 255 , 255)&quot;&gt;Updating matrix A&lt;/span&gt;&lt;span style=&quot;box-sizing: border-box ; color: rgb(51 , 51 , 51) ; font-family: &amp;#34;poppins&amp;#34; , sans-serif ; text-align: left ; background-color: rgb(255 , 255 , 255)&quot;&gt;&lt;span style=&quot;font-size: 12px&quot;&gt;&lt;sup&gt;1&lt;/sup&gt;&lt;/span&gt;&lt;span style=&quot;font-size: 16px&quot;&gt;&amp;nbsp;which contains the distance between each node with &lt;/span&gt;&lt;b style=&quot;font-size: 16px&quot;&gt;‘1’&lt;/b&gt;&lt;span style=&quot;font-size: 16px&quot;&gt; as an intermediate node. &lt;/span&gt;&lt;br&gt;&lt;span style=&quot;font-size: 16px&quot;&gt;Update distance if minimum distance value smaller than existing distance value found.&lt;/span&gt;&lt;/span&gt;" style="text;html=1;align=center;verticalAlign=middle;resizable=0;points=[];autosize=1;strokeColor=none;fillColor=none;fontSize=18;" parent="1" vertex="1">
          <mxGeometry x="200" y="430" width="730" height="50" as="geometry" />
        </mxCell>
        <mxCell id="MEUeXcoPpYQQ2M0SvhKJ-71" value="&lt;font style=&quot;font-size: 19px&quot;&gt;&lt;span style=&quot;background-color: transparent&quot;&gt;‌&lt;/span&gt;&lt;span style=&quot;background-color: transparent ; font-weight: bold ; color: rgb(242 , 73 , 75) ; font-family: &amp;#34;lato&amp;#34;&quot;&gt;S&lt;/span&gt;&lt;sup style=&quot;font-weight: bold ; color: rgb(242 , 73 , 75) ; font-family: &amp;#34;lato&amp;#34;&quot;&gt;k&lt;/sup&gt;&lt;span style=&quot;background-color: transparent ; font-weight: bold ; color: rgb(242 , 73 , 75) ; font-family: &amp;#34;lato&amp;#34;&quot;&gt;(i,j) = min(&lt;/span&gt;&lt;span style=&quot;background-color: transparent ; font-weight: bold ; color: rgb(242 , 73 , 75) ; font-family: &amp;#34;lato&amp;#34;&quot;&gt;S&lt;/span&gt;&lt;sup style=&quot;font-weight: bold ; color: rgb(242 , 73 , 75) ; font-family: &amp;#34;lato&amp;#34;&quot;&gt;k&lt;/sup&gt;&lt;sup style=&quot;font-weight: bold ; color: rgb(242 , 73 , 75) ; font-family: &amp;#34;lato&amp;#34;&quot;&gt;-1&lt;/sup&gt;&lt;span style=&quot;background-color: transparent ; font-weight: bold ; color: rgb(242 , 73 , 75) ; font-family: &amp;#34;lato&amp;#34;&quot;&gt;(i,j) , &lt;/span&gt;&lt;span style=&quot;background-color: transparent ; font-weight: bold ; color: rgb(242 , 73 , 75) ; font-family: &amp;#34;lato&amp;#34;&quot;&gt;S&lt;/span&gt;&lt;sup style=&quot;font-weight: bold ; color: rgb(242 , 73 , 75) ; font-family: &amp;#34;lato&amp;#34;&quot;&gt;k&lt;/sup&gt;&lt;sup style=&quot;font-weight: bold ; color: rgb(242 , 73 , 75) ; font-family: &amp;#34;lato&amp;#34;&quot;&gt;-1&lt;/sup&gt;&lt;span style=&quot;background-color: transparent ; font-weight: bold ; color: rgb(242 , 73 , 75) ; font-family: &amp;#34;lato&amp;#34;&quot;&gt;(i, k) + &lt;/span&gt;&lt;span style=&quot;background-color: transparent ; font-weight: bold ; color: rgb(242 , 73 , 75) ; font-family: &amp;#34;lato&amp;#34;&quot;&gt;S&lt;/span&gt;&lt;sup style=&quot;font-weight: bold ; color: rgb(242 , 73 , 75) ; font-family: &amp;#34;lato&amp;#34;&quot;&gt;k&lt;/sup&gt;&lt;sup style=&quot;font-weight: bold ; color: rgb(242 , 73 , 75) ; font-family: &amp;#34;lato&amp;#34;&quot;&gt;-1&lt;/sup&gt;&lt;span style=&quot;background-color: transparent ; font-weight: bold ; color: rgb(242 , 73 , 75) ; font-family: &amp;#34;lato&amp;#34;&quot;&gt;(k, j))&lt;/span&gt;&lt;/font&gt;" style="text;html=1;align=center;verticalAlign=middle;resizable=0;points=[];autosize=1;strokeColor=none;fillColor=none;fontSize=18;" parent="1" vertex="1">
          <mxGeometry x="370" y="485" width="370" height="30" as="geometry" />
        </mxCell>
        <mxCell id="MEUeXcoPpYQQ2M0SvhKJ-73" value="A&lt;sup&gt;1&lt;/sup&gt;[3, 2]= min(A&lt;sup&gt;0&lt;/sup&gt;(3,2),A&lt;sup&gt;0&lt;/sup&gt;(3,1)+A&lt;sup&gt;0&lt;/sup&gt;(1,2))&lt;br&gt;= min(INF, 30+5) = 35&lt;br&gt;&lt;br&gt;A&lt;sup&gt;1&lt;/sup&gt;[4, 2]= min(A&lt;sup&gt;0&lt;/sup&gt;(4,2),A&lt;sup&gt;0&lt;/sup&gt;(4,1)+A&lt;sup&gt;0&lt;/sup&gt;(1,2))&lt;br&gt;= min(INF, 15+5) = 20" style="text;html=1;align=center;verticalAlign=middle;resizable=0;points=[];autosize=1;strokeColor=none;fillColor=none;fontSize=19;" parent="1" vertex="1">
          <mxGeometry x="370" y="640" width="340" height="130" as="geometry" />
        </mxCell>
        <mxCell id="MEUeXcoPpYQQ2M0SvhKJ-75" value="" style="endArrow=classic;html=1;rounded=0;fontFamily=Helvetica;fontSize=19;" parent="1" edge="1">
          <mxGeometry width="50" height="50" relative="1" as="geometry">
            <mxPoint x="1080" y="710" as="sourcePoint" />
            <mxPoint x="1280" y="710" as="targetPoint" />
          </mxGeometry>
        </mxCell>
        <mxCell id="MEUeXcoPpYQQ2M0SvhKJ-120" value="" style="shape=table;html=1;whiteSpace=wrap;startSize=0;container=1;collapsible=0;childLayout=tableLayout;fontSize=18;" parent="1" vertex="1">
          <mxGeometry x="1395" y="640" width="240" height="160" as="geometry" />
        </mxCell>
        <mxCell id="MEUeXcoPpYQQ2M0SvhKJ-121" value="" style="shape=tableRow;horizontal=0;startSize=0;swimlaneHead=0;swimlaneBody=0;top=0;left=0;bottom=0;right=0;collapsible=0;dropTarget=0;fillColor=none;points=[[0,0.5],[1,0.5]];portConstraint=eastwest;fontSize=18;" parent="MEUeXcoPpYQQ2M0SvhKJ-120" vertex="1">
          <mxGeometry width="240" height="40" as="geometry" />
        </mxCell>
        <mxCell id="MEUeXcoPpYQQ2M0SvhKJ-122" value="0" style="shape=partialRectangle;html=1;whiteSpace=wrap;connectable=0;fillColor=none;top=0;left=0;bottom=0;right=0;overflow=hidden;fontSize=18;" parent="MEUeXcoPpYQQ2M0SvhKJ-121" vertex="1">
          <mxGeometry width="60" height="40" as="geometry">
            <mxRectangle width="60" height="40" as="alternateBounds" />
          </mxGeometry>
        </mxCell>
        <mxCell id="MEUeXcoPpYQQ2M0SvhKJ-123" value="5" style="shape=partialRectangle;html=1;whiteSpace=wrap;connectable=0;fillColor=none;top=0;left=0;bottom=0;right=0;overflow=hidden;fontSize=18;" parent="MEUeXcoPpYQQ2M0SvhKJ-121" vertex="1">
          <mxGeometry x="60" width="60" height="40" as="geometry">
            <mxRectangle width="60" height="40" as="alternateBounds" />
          </mxGeometry>
        </mxCell>
        <mxCell id="MEUeXcoPpYQQ2M0SvhKJ-124" value="INF" style="shape=partialRectangle;html=1;whiteSpace=wrap;connectable=0;fillColor=none;top=0;left=0;bottom=0;right=0;overflow=hidden;fontSize=18;" parent="MEUeXcoPpYQQ2M0SvhKJ-121" vertex="1">
          <mxGeometry x="120" width="60" height="40" as="geometry">
            <mxRectangle width="60" height="40" as="alternateBounds" />
          </mxGeometry>
        </mxCell>
        <mxCell id="MEUeXcoPpYQQ2M0SvhKJ-125" value="INF" style="shape=partialRectangle;html=1;whiteSpace=wrap;connectable=0;fillColor=none;top=0;left=0;bottom=0;right=0;overflow=hidden;fontSize=18;" parent="MEUeXcoPpYQQ2M0SvhKJ-121" vertex="1">
          <mxGeometry x="180" width="60" height="40" as="geometry">
            <mxRectangle width="60" height="40" as="alternateBounds" />
          </mxGeometry>
        </mxCell>
        <mxCell id="MEUeXcoPpYQQ2M0SvhKJ-126" value="" style="shape=tableRow;horizontal=0;startSize=0;swimlaneHead=0;swimlaneBody=0;top=0;left=0;bottom=0;right=0;collapsible=0;dropTarget=0;fillColor=none;points=[[0,0.5],[1,0.5]];portConstraint=eastwest;fontSize=18;" parent="MEUeXcoPpYQQ2M0SvhKJ-120" vertex="1">
          <mxGeometry y="40" width="240" height="40" as="geometry" />
        </mxCell>
        <mxCell id="MEUeXcoPpYQQ2M0SvhKJ-127" value="50" style="shape=partialRectangle;html=1;whiteSpace=wrap;connectable=0;fillColor=none;top=0;left=0;bottom=0;right=0;overflow=hidden;fontSize=18;" parent="MEUeXcoPpYQQ2M0SvhKJ-126" vertex="1">
          <mxGeometry width="60" height="40" as="geometry">
            <mxRectangle width="60" height="40" as="alternateBounds" />
          </mxGeometry>
        </mxCell>
        <mxCell id="MEUeXcoPpYQQ2M0SvhKJ-128" value="0" style="shape=partialRectangle;html=1;whiteSpace=wrap;connectable=0;fillColor=none;top=0;left=0;bottom=0;right=0;overflow=hidden;fontSize=18;" parent="MEUeXcoPpYQQ2M0SvhKJ-126" vertex="1">
          <mxGeometry x="60" width="60" height="40" as="geometry">
            <mxRectangle width="60" height="40" as="alternateBounds" />
          </mxGeometry>
        </mxCell>
        <mxCell id="MEUeXcoPpYQQ2M0SvhKJ-129" value="15" style="shape=partialRectangle;html=1;whiteSpace=wrap;connectable=0;fillColor=none;top=0;left=0;bottom=0;right=0;overflow=hidden;fontSize=18;" parent="MEUeXcoPpYQQ2M0SvhKJ-126" vertex="1">
          <mxGeometry x="120" width="60" height="40" as="geometry">
            <mxRectangle width="60" height="40" as="alternateBounds" />
          </mxGeometry>
        </mxCell>
        <mxCell id="MEUeXcoPpYQQ2M0SvhKJ-130" value="5" style="shape=partialRectangle;html=1;whiteSpace=wrap;connectable=0;fillColor=none;top=0;left=0;bottom=0;right=0;overflow=hidden;fontSize=18;" parent="MEUeXcoPpYQQ2M0SvhKJ-126" vertex="1">
          <mxGeometry x="180" width="60" height="40" as="geometry">
            <mxRectangle width="60" height="40" as="alternateBounds" />
          </mxGeometry>
        </mxCell>
        <mxCell id="MEUeXcoPpYQQ2M0SvhKJ-131" style="shape=tableRow;horizontal=0;startSize=0;swimlaneHead=0;swimlaneBody=0;top=0;left=0;bottom=0;right=0;collapsible=0;dropTarget=0;fillColor=none;points=[[0,0.5],[1,0.5]];portConstraint=eastwest;fontSize=18;" parent="MEUeXcoPpYQQ2M0SvhKJ-120" vertex="1">
          <mxGeometry y="80" width="240" height="40" as="geometry" />
        </mxCell>
        <mxCell id="MEUeXcoPpYQQ2M0SvhKJ-132" value="30" style="shape=partialRectangle;html=1;whiteSpace=wrap;connectable=0;fillColor=none;top=0;left=0;bottom=0;right=0;overflow=hidden;fontSize=18;" parent="MEUeXcoPpYQQ2M0SvhKJ-131" vertex="1">
          <mxGeometry width="60" height="40" as="geometry">
            <mxRectangle width="60" height="40" as="alternateBounds" />
          </mxGeometry>
        </mxCell>
        <mxCell id="MEUeXcoPpYQQ2M0SvhKJ-133" value="&lt;span style=&quot;background-color: rgb(255 , 0 , 0)&quot;&gt;35&lt;/span&gt;" style="shape=partialRectangle;html=1;whiteSpace=wrap;connectable=0;fillColor=none;top=0;left=0;bottom=0;right=0;overflow=hidden;fontSize=18;" parent="MEUeXcoPpYQQ2M0SvhKJ-131" vertex="1">
          <mxGeometry x="60" width="60" height="40" as="geometry">
            <mxRectangle width="60" height="40" as="alternateBounds" />
          </mxGeometry>
        </mxCell>
        <mxCell id="MEUeXcoPpYQQ2M0SvhKJ-134" value="0" style="shape=partialRectangle;html=1;whiteSpace=wrap;connectable=0;fillColor=none;top=0;left=0;bottom=0;right=0;overflow=hidden;fontSize=18;" parent="MEUeXcoPpYQQ2M0SvhKJ-131" vertex="1">
          <mxGeometry x="120" width="60" height="40" as="geometry">
            <mxRectangle width="60" height="40" as="alternateBounds" />
          </mxGeometry>
        </mxCell>
        <mxCell id="MEUeXcoPpYQQ2M0SvhKJ-135" value="15" style="shape=partialRectangle;html=1;whiteSpace=wrap;connectable=0;fillColor=none;top=0;left=0;bottom=0;right=0;overflow=hidden;fontSize=18;" parent="MEUeXcoPpYQQ2M0SvhKJ-131" vertex="1">
          <mxGeometry x="180" width="60" height="40" as="geometry">
            <mxRectangle width="60" height="40" as="alternateBounds" />
          </mxGeometry>
        </mxCell>
        <mxCell id="MEUeXcoPpYQQ2M0SvhKJ-136" value="" style="shape=tableRow;horizontal=0;startSize=0;swimlaneHead=0;swimlaneBody=0;top=0;left=0;bottom=0;right=0;collapsible=0;dropTarget=0;fillColor=none;points=[[0,0.5],[1,0.5]];portConstraint=eastwest;fontSize=18;" parent="MEUeXcoPpYQQ2M0SvhKJ-120" vertex="1">
          <mxGeometry y="120" width="240" height="40" as="geometry" />
        </mxCell>
        <mxCell id="MEUeXcoPpYQQ2M0SvhKJ-137" value="15" style="shape=partialRectangle;html=1;whiteSpace=wrap;connectable=0;fillColor=none;top=0;left=0;bottom=0;right=0;overflow=hidden;fontSize=18;" parent="MEUeXcoPpYQQ2M0SvhKJ-136" vertex="1">
          <mxGeometry width="60" height="40" as="geometry">
            <mxRectangle width="60" height="40" as="alternateBounds" />
          </mxGeometry>
        </mxCell>
        <mxCell id="MEUeXcoPpYQQ2M0SvhKJ-138" value="&lt;span style=&quot;background-color: rgb(255 , 0 , 0)&quot;&gt;20&lt;/span&gt;" style="shape=partialRectangle;html=1;whiteSpace=wrap;connectable=0;fillColor=none;top=0;left=0;bottom=0;right=0;overflow=hidden;fontSize=18;" parent="MEUeXcoPpYQQ2M0SvhKJ-136" vertex="1">
          <mxGeometry x="60" width="60" height="40" as="geometry">
            <mxRectangle width="60" height="40" as="alternateBounds" />
          </mxGeometry>
        </mxCell>
        <mxCell id="MEUeXcoPpYQQ2M0SvhKJ-139" value="5" style="shape=partialRectangle;html=1;whiteSpace=wrap;connectable=0;fillColor=none;top=0;left=0;bottom=0;right=0;overflow=hidden;pointerEvents=1;fontSize=18;" parent="MEUeXcoPpYQQ2M0SvhKJ-136" vertex="1">
          <mxGeometry x="120" width="60" height="40" as="geometry">
            <mxRectangle width="60" height="40" as="alternateBounds" />
          </mxGeometry>
        </mxCell>
        <mxCell id="MEUeXcoPpYQQ2M0SvhKJ-140" value="0" style="shape=partialRectangle;html=1;whiteSpace=wrap;connectable=0;fillColor=none;top=0;left=0;bottom=0;right=0;overflow=hidden;pointerEvents=1;fontSize=18;" parent="MEUeXcoPpYQQ2M0SvhKJ-136" vertex="1">
          <mxGeometry x="180" width="60" height="40" as="geometry">
            <mxRectangle width="60" height="40" as="alternateBounds" />
          </mxGeometry>
        </mxCell>
        <mxCell id="MEUeXcoPpYQQ2M0SvhKJ-141" value="A1&lt;sub&gt;&amp;nbsp;&lt;/sub&gt;=" style="text;html=1;align=center;verticalAlign=middle;resizable=0;points=[];autosize=1;strokeColor=none;fillColor=none;fontSize=18;" parent="1" vertex="1">
          <mxGeometry x="1320" y="700" width="50" height="30" as="geometry" />
        </mxCell>
        <mxCell id="MEUeXcoPpYQQ2M0SvhKJ-142" value="" style="endArrow=none;html=1;rounded=0;fontSize=18;" parent="1" edge="1">
          <mxGeometry width="50" height="50" relative="1" as="geometry">
            <mxPoint x="50" y="850" as="sourcePoint" />
            <mxPoint x="1716.923076923077" y="850" as="targetPoint" />
          </mxGeometry>
        </mxCell>
        <mxCell id="MEUeXcoPpYQQ2M0SvhKJ-143" value="&lt;span style=&quot;box-sizing: border-box ; color: rgb(51 , 51 , 51) ; font-family: &amp;#34;poppins&amp;#34; , sans-serif ; font-size: 16px ; text-align: left ; background-color: rgb(255 , 255 , 255)&quot;&gt;Updating matrix A&lt;/span&gt;&lt;span style=&quot;box-sizing: border-box ; color: rgb(51 , 51 , 51) ; font-family: &amp;#34;poppins&amp;#34; , sans-serif ; text-align: left ; background-color: rgb(255 , 255 , 255) ; font-size: 10px&quot;&gt;&lt;sup&gt;2&lt;/sup&gt;&lt;/span&gt;&lt;span style=&quot;box-sizing: border-box ; color: rgb(51 , 51 , 51) ; font-family: &amp;#34;poppins&amp;#34; , sans-serif ; text-align: left ; background-color: rgb(255 , 255 , 255)&quot;&gt;&lt;span style=&quot;font-size: 16px&quot;&gt;&amp;nbsp;which contains the distance between each node with &lt;/span&gt;&lt;b style=&quot;font-size: 16px&quot;&gt;‘2’&lt;/b&gt;&lt;span style=&quot;font-size: 16px&quot;&gt; as an intermediate node. &lt;/span&gt;&lt;br&gt;&lt;span style=&quot;font-size: 16px&quot;&gt;Update distance if minimum distance value smaller than existing distance value found.&lt;/span&gt;&lt;/span&gt;" style="text;html=1;align=center;verticalAlign=middle;resizable=0;points=[];autosize=1;strokeColor=none;fillColor=none;fontSize=18;" parent="1" vertex="1">
          <mxGeometry x="250" y="870" width="730" height="50" as="geometry" />
        </mxCell>
        <mxCell id="MEUeXcoPpYQQ2M0SvhKJ-144" value="&lt;font style=&quot;font-size: 19px&quot;&gt;&lt;span style=&quot;background-color: transparent&quot;&gt;‌&lt;/span&gt;&lt;span style=&quot;background-color: transparent ; font-weight: bold ; color: rgb(242 , 73 , 75) ; font-family: &amp;#34;lato&amp;#34;&quot;&gt;S&lt;/span&gt;&lt;sup style=&quot;font-weight: bold ; color: rgb(242 , 73 , 75) ; font-family: &amp;#34;lato&amp;#34;&quot;&gt;k&lt;/sup&gt;&lt;span style=&quot;background-color: transparent ; font-weight: bold ; color: rgb(242 , 73 , 75) ; font-family: &amp;#34;lato&amp;#34;&quot;&gt;(i,j) = min(&lt;/span&gt;&lt;span style=&quot;background-color: transparent ; font-weight: bold ; color: rgb(242 , 73 , 75) ; font-family: &amp;#34;lato&amp;#34;&quot;&gt;S&lt;/span&gt;&lt;sup style=&quot;font-weight: bold ; color: rgb(242 , 73 , 75) ; font-family: &amp;#34;lato&amp;#34;&quot;&gt;k&lt;/sup&gt;&lt;sup style=&quot;font-weight: bold ; color: rgb(242 , 73 , 75) ; font-family: &amp;#34;lato&amp;#34;&quot;&gt;-1&lt;/sup&gt;&lt;span style=&quot;background-color: transparent ; font-weight: bold ; color: rgb(242 , 73 , 75) ; font-family: &amp;#34;lato&amp;#34;&quot;&gt;(i,j) , &lt;/span&gt;&lt;span style=&quot;background-color: transparent ; font-weight: bold ; color: rgb(242 , 73 , 75) ; font-family: &amp;#34;lato&amp;#34;&quot;&gt;S&lt;/span&gt;&lt;sup style=&quot;font-weight: bold ; color: rgb(242 , 73 , 75) ; font-family: &amp;#34;lato&amp;#34;&quot;&gt;k&lt;/sup&gt;&lt;sup style=&quot;font-weight: bold ; color: rgb(242 , 73 , 75) ; font-family: &amp;#34;lato&amp;#34;&quot;&gt;-1&lt;/sup&gt;&lt;span style=&quot;background-color: transparent ; font-weight: bold ; color: rgb(242 , 73 , 75) ; font-family: &amp;#34;lato&amp;#34;&quot;&gt;(i, k) + &lt;/span&gt;&lt;span style=&quot;background-color: transparent ; font-weight: bold ; color: rgb(242 , 73 , 75) ; font-family: &amp;#34;lato&amp;#34;&quot;&gt;S&lt;/span&gt;&lt;sup style=&quot;font-weight: bold ; color: rgb(242 , 73 , 75) ; font-family: &amp;#34;lato&amp;#34;&quot;&gt;k&lt;/sup&gt;&lt;sup style=&quot;font-weight: bold ; color: rgb(242 , 73 , 75) ; font-family: &amp;#34;lato&amp;#34;&quot;&gt;-1&lt;/sup&gt;&lt;span style=&quot;background-color: transparent ; font-weight: bold ; color: rgb(242 , 73 , 75) ; font-family: &amp;#34;lato&amp;#34;&quot;&gt;(k, j))&lt;/span&gt;&lt;/font&gt;" style="text;html=1;align=center;verticalAlign=middle;resizable=0;points=[];autosize=1;strokeColor=none;fillColor=none;fontSize=18;" parent="1" vertex="1">
          <mxGeometry x="420" y="925" width="370" height="30" as="geometry" />
        </mxCell>
        <mxCell id="MEUeXcoPpYQQ2M0SvhKJ-145" value="" style="shape=table;html=1;whiteSpace=wrap;startSize=0;container=1;collapsible=0;childLayout=tableLayout;fontSize=18;" parent="1" vertex="1">
          <mxGeometry x="227.5" y="1020" width="240" height="160" as="geometry" />
        </mxCell>
        <mxCell id="MEUeXcoPpYQQ2M0SvhKJ-146" value="" style="shape=tableRow;horizontal=0;startSize=0;swimlaneHead=0;swimlaneBody=0;top=0;left=0;bottom=0;right=0;collapsible=0;dropTarget=0;fillColor=none;points=[[0,0.5],[1,0.5]];portConstraint=eastwest;fontSize=18;" parent="MEUeXcoPpYQQ2M0SvhKJ-145" vertex="1">
          <mxGeometry width="240" height="40" as="geometry" />
        </mxCell>
        <mxCell id="MEUeXcoPpYQQ2M0SvhKJ-147" value="0" style="shape=partialRectangle;html=1;whiteSpace=wrap;connectable=0;fillColor=none;top=0;left=0;bottom=0;right=0;overflow=hidden;fontSize=18;" parent="MEUeXcoPpYQQ2M0SvhKJ-146" vertex="1">
          <mxGeometry width="60" height="40" as="geometry">
            <mxRectangle width="60" height="40" as="alternateBounds" />
          </mxGeometry>
        </mxCell>
        <mxCell id="MEUeXcoPpYQQ2M0SvhKJ-148" value="5" style="shape=partialRectangle;html=1;whiteSpace=wrap;connectable=0;fillColor=none;top=0;left=0;bottom=0;right=0;overflow=hidden;fontSize=18;" parent="MEUeXcoPpYQQ2M0SvhKJ-146" vertex="1">
          <mxGeometry x="60" width="60" height="40" as="geometry">
            <mxRectangle width="60" height="40" as="alternateBounds" />
          </mxGeometry>
        </mxCell>
        <mxCell id="MEUeXcoPpYQQ2M0SvhKJ-149" value="INF" style="shape=partialRectangle;html=1;whiteSpace=wrap;connectable=0;fillColor=none;top=0;left=0;bottom=0;right=0;overflow=hidden;fontSize=18;" parent="MEUeXcoPpYQQ2M0SvhKJ-146" vertex="1">
          <mxGeometry x="120" width="60" height="40" as="geometry">
            <mxRectangle width="60" height="40" as="alternateBounds" />
          </mxGeometry>
        </mxCell>
        <mxCell id="MEUeXcoPpYQQ2M0SvhKJ-150" value="INF" style="shape=partialRectangle;html=1;whiteSpace=wrap;connectable=0;fillColor=none;top=0;left=0;bottom=0;right=0;overflow=hidden;fontSize=18;" parent="MEUeXcoPpYQQ2M0SvhKJ-146" vertex="1">
          <mxGeometry x="180" width="60" height="40" as="geometry">
            <mxRectangle width="60" height="40" as="alternateBounds" />
          </mxGeometry>
        </mxCell>
        <mxCell id="MEUeXcoPpYQQ2M0SvhKJ-151" value="" style="shape=tableRow;horizontal=0;startSize=0;swimlaneHead=0;swimlaneBody=0;top=0;left=0;bottom=0;right=0;collapsible=0;dropTarget=0;fillColor=none;points=[[0,0.5],[1,0.5]];portConstraint=eastwest;fontSize=18;" parent="MEUeXcoPpYQQ2M0SvhKJ-145" vertex="1">
          <mxGeometry y="40" width="240" height="40" as="geometry" />
        </mxCell>
        <mxCell id="MEUeXcoPpYQQ2M0SvhKJ-152" value="50" style="shape=partialRectangle;html=1;whiteSpace=wrap;connectable=0;fillColor=none;top=0;left=0;bottom=0;right=0;overflow=hidden;fontSize=18;" parent="MEUeXcoPpYQQ2M0SvhKJ-151" vertex="1">
          <mxGeometry width="60" height="40" as="geometry">
            <mxRectangle width="60" height="40" as="alternateBounds" />
          </mxGeometry>
        </mxCell>
        <mxCell id="MEUeXcoPpYQQ2M0SvhKJ-153" value="0" style="shape=partialRectangle;html=1;whiteSpace=wrap;connectable=0;fillColor=none;top=0;left=0;bottom=0;right=0;overflow=hidden;fontSize=18;" parent="MEUeXcoPpYQQ2M0SvhKJ-151" vertex="1">
          <mxGeometry x="60" width="60" height="40" as="geometry">
            <mxRectangle width="60" height="40" as="alternateBounds" />
          </mxGeometry>
        </mxCell>
        <mxCell id="MEUeXcoPpYQQ2M0SvhKJ-154" value="15" style="shape=partialRectangle;html=1;whiteSpace=wrap;connectable=0;fillColor=none;top=0;left=0;bottom=0;right=0;overflow=hidden;fontSize=18;" parent="MEUeXcoPpYQQ2M0SvhKJ-151" vertex="1">
          <mxGeometry x="120" width="60" height="40" as="geometry">
            <mxRectangle width="60" height="40" as="alternateBounds" />
          </mxGeometry>
        </mxCell>
        <mxCell id="MEUeXcoPpYQQ2M0SvhKJ-155" value="5" style="shape=partialRectangle;html=1;whiteSpace=wrap;connectable=0;fillColor=none;top=0;left=0;bottom=0;right=0;overflow=hidden;fontSize=18;" parent="MEUeXcoPpYQQ2M0SvhKJ-151" vertex="1">
          <mxGeometry x="180" width="60" height="40" as="geometry">
            <mxRectangle width="60" height="40" as="alternateBounds" />
          </mxGeometry>
        </mxCell>
        <mxCell id="MEUeXcoPpYQQ2M0SvhKJ-156" style="shape=tableRow;horizontal=0;startSize=0;swimlaneHead=0;swimlaneBody=0;top=0;left=0;bottom=0;right=0;collapsible=0;dropTarget=0;fillColor=none;points=[[0,0.5],[1,0.5]];portConstraint=eastwest;fontSize=18;" parent="MEUeXcoPpYQQ2M0SvhKJ-145" vertex="1">
          <mxGeometry y="80" width="240" height="40" as="geometry" />
        </mxCell>
        <mxCell id="MEUeXcoPpYQQ2M0SvhKJ-157" value="30" style="shape=partialRectangle;html=1;whiteSpace=wrap;connectable=0;fillColor=none;top=0;left=0;bottom=0;right=0;overflow=hidden;fontSize=18;" parent="MEUeXcoPpYQQ2M0SvhKJ-156" vertex="1">
          <mxGeometry width="60" height="40" as="geometry">
            <mxRectangle width="60" height="40" as="alternateBounds" />
          </mxGeometry>
        </mxCell>
        <mxCell id="MEUeXcoPpYQQ2M0SvhKJ-158" value="35" style="shape=partialRectangle;html=1;whiteSpace=wrap;connectable=0;fillColor=none;top=0;left=0;bottom=0;right=0;overflow=hidden;fontSize=18;" parent="MEUeXcoPpYQQ2M0SvhKJ-156" vertex="1">
          <mxGeometry x="60" width="60" height="40" as="geometry">
            <mxRectangle width="60" height="40" as="alternateBounds" />
          </mxGeometry>
        </mxCell>
        <mxCell id="MEUeXcoPpYQQ2M0SvhKJ-159" value="0" style="shape=partialRectangle;html=1;whiteSpace=wrap;connectable=0;fillColor=none;top=0;left=0;bottom=0;right=0;overflow=hidden;fontSize=18;" parent="MEUeXcoPpYQQ2M0SvhKJ-156" vertex="1">
          <mxGeometry x="120" width="60" height="40" as="geometry">
            <mxRectangle width="60" height="40" as="alternateBounds" />
          </mxGeometry>
        </mxCell>
        <mxCell id="MEUeXcoPpYQQ2M0SvhKJ-160" value="15" style="shape=partialRectangle;html=1;whiteSpace=wrap;connectable=0;fillColor=none;top=0;left=0;bottom=0;right=0;overflow=hidden;fontSize=18;" parent="MEUeXcoPpYQQ2M0SvhKJ-156" vertex="1">
          <mxGeometry x="180" width="60" height="40" as="geometry">
            <mxRectangle width="60" height="40" as="alternateBounds" />
          </mxGeometry>
        </mxCell>
        <mxCell id="MEUeXcoPpYQQ2M0SvhKJ-161" value="" style="shape=tableRow;horizontal=0;startSize=0;swimlaneHead=0;swimlaneBody=0;top=0;left=0;bottom=0;right=0;collapsible=0;dropTarget=0;fillColor=none;points=[[0,0.5],[1,0.5]];portConstraint=eastwest;fontSize=18;" parent="MEUeXcoPpYQQ2M0SvhKJ-145" vertex="1">
          <mxGeometry y="120" width="240" height="40" as="geometry" />
        </mxCell>
        <mxCell id="MEUeXcoPpYQQ2M0SvhKJ-162" value="15" style="shape=partialRectangle;html=1;whiteSpace=wrap;connectable=0;fillColor=none;top=0;left=0;bottom=0;right=0;overflow=hidden;fontSize=18;" parent="MEUeXcoPpYQQ2M0SvhKJ-161" vertex="1">
          <mxGeometry width="60" height="40" as="geometry">
            <mxRectangle width="60" height="40" as="alternateBounds" />
          </mxGeometry>
        </mxCell>
        <mxCell id="MEUeXcoPpYQQ2M0SvhKJ-163" value="20" style="shape=partialRectangle;html=1;whiteSpace=wrap;connectable=0;fillColor=none;top=0;left=0;bottom=0;right=0;overflow=hidden;fontSize=18;" parent="MEUeXcoPpYQQ2M0SvhKJ-161" vertex="1">
          <mxGeometry x="60" width="60" height="40" as="geometry">
            <mxRectangle width="60" height="40" as="alternateBounds" />
          </mxGeometry>
        </mxCell>
        <mxCell id="MEUeXcoPpYQQ2M0SvhKJ-164" value="5" style="shape=partialRectangle;html=1;whiteSpace=wrap;connectable=0;fillColor=none;top=0;left=0;bottom=0;right=0;overflow=hidden;pointerEvents=1;fontSize=18;" parent="MEUeXcoPpYQQ2M0SvhKJ-161" vertex="1">
          <mxGeometry x="120" width="60" height="40" as="geometry">
            <mxRectangle width="60" height="40" as="alternateBounds" />
          </mxGeometry>
        </mxCell>
        <mxCell id="MEUeXcoPpYQQ2M0SvhKJ-165" value="0" style="shape=partialRectangle;html=1;whiteSpace=wrap;connectable=0;fillColor=none;top=0;left=0;bottom=0;right=0;overflow=hidden;pointerEvents=1;fontSize=18;" parent="MEUeXcoPpYQQ2M0SvhKJ-161" vertex="1">
          <mxGeometry x="180" width="60" height="40" as="geometry">
            <mxRectangle width="60" height="40" as="alternateBounds" />
          </mxGeometry>
        </mxCell>
        <mxCell id="MEUeXcoPpYQQ2M0SvhKJ-166" value="A1&lt;sub&gt;&amp;nbsp;&lt;/sub&gt;=" style="text;html=1;align=center;verticalAlign=middle;resizable=0;points=[];autosize=1;strokeColor=none;fillColor=none;fontSize=18;" parent="1" vertex="1">
          <mxGeometry x="152.5" y="1080" width="50" height="30" as="geometry" />
        </mxCell>
        <mxCell id="MEUeXcoPpYQQ2M0SvhKJ-167" value="A&lt;span style=&quot;font-size: 15.8333px&quot;&gt;&lt;sup&gt;2&lt;/sup&gt;&lt;/span&gt;[1, 3]= min(A&lt;sup&gt;1&lt;/sup&gt;(1,3), A&lt;sup&gt;1&lt;/sup&gt;(1,2)+A&lt;sup&gt;1&lt;/sup&gt;(2,3))&lt;br&gt;= min(INF, 5+15) = 20&lt;br&gt;&lt;br&gt;A&lt;span style=&quot;font-size: 15.8333px&quot;&gt;&lt;sup&gt;2&lt;/sup&gt;&lt;/span&gt;[1, 4]= min(A&lt;sup&gt;1&lt;/sup&gt;(1,4), A&lt;sup&gt;1&lt;/sup&gt;(1,2)+A&lt;sup&gt;1&lt;/sup&gt;(2,4))&lt;br&gt;= min(INF, 5+5) = 10" style="text;html=1;align=center;verticalAlign=middle;resizable=0;points=[];autosize=1;strokeColor=none;fillColor=none;fontSize=19;" parent="1" vertex="1">
          <mxGeometry x="520" y="1035" width="340" height="130" as="geometry" />
        </mxCell>
        <mxCell id="MEUeXcoPpYQQ2M0SvhKJ-168" value="" style="shape=table;html=1;whiteSpace=wrap;startSize=0;container=1;collapsible=0;childLayout=tableLayout;fontSize=18;" parent="1" vertex="1">
          <mxGeometry x="985" y="1020" width="240" height="160" as="geometry" />
        </mxCell>
        <mxCell id="MEUeXcoPpYQQ2M0SvhKJ-169" value="" style="shape=tableRow;horizontal=0;startSize=0;swimlaneHead=0;swimlaneBody=0;top=0;left=0;bottom=0;right=0;collapsible=0;dropTarget=0;fillColor=none;points=[[0,0.5],[1,0.5]];portConstraint=eastwest;fontSize=18;" parent="MEUeXcoPpYQQ2M0SvhKJ-168" vertex="1">
          <mxGeometry width="240" height="40" as="geometry" />
        </mxCell>
        <mxCell id="MEUeXcoPpYQQ2M0SvhKJ-170" value="0" style="shape=partialRectangle;html=1;whiteSpace=wrap;connectable=0;fillColor=none;top=0;left=0;bottom=0;right=0;overflow=hidden;fontSize=18;" parent="MEUeXcoPpYQQ2M0SvhKJ-169" vertex="1">
          <mxGeometry width="60" height="40" as="geometry">
            <mxRectangle width="60" height="40" as="alternateBounds" />
          </mxGeometry>
        </mxCell>
        <mxCell id="MEUeXcoPpYQQ2M0SvhKJ-171" value="5" style="shape=partialRectangle;html=1;whiteSpace=wrap;connectable=0;fillColor=none;top=0;left=0;bottom=0;right=0;overflow=hidden;fontSize=18;" parent="MEUeXcoPpYQQ2M0SvhKJ-169" vertex="1">
          <mxGeometry x="60" width="60" height="40" as="geometry">
            <mxRectangle width="60" height="40" as="alternateBounds" />
          </mxGeometry>
        </mxCell>
        <mxCell id="MEUeXcoPpYQQ2M0SvhKJ-172" value="&lt;span style=&quot;background-color: rgb(255 , 0 , 0)&quot;&gt;20&lt;/span&gt;" style="shape=partialRectangle;html=1;whiteSpace=wrap;connectable=0;fillColor=none;top=0;left=0;bottom=0;right=0;overflow=hidden;fontSize=18;" parent="MEUeXcoPpYQQ2M0SvhKJ-169" vertex="1">
          <mxGeometry x="120" width="60" height="40" as="geometry">
            <mxRectangle width="60" height="40" as="alternateBounds" />
          </mxGeometry>
        </mxCell>
        <mxCell id="MEUeXcoPpYQQ2M0SvhKJ-173" value="&lt;span style=&quot;background-color: rgb(255 , 0 , 0)&quot;&gt;10&lt;/span&gt;" style="shape=partialRectangle;html=1;whiteSpace=wrap;connectable=0;fillColor=none;top=0;left=0;bottom=0;right=0;overflow=hidden;fontSize=18;" parent="MEUeXcoPpYQQ2M0SvhKJ-169" vertex="1">
          <mxGeometry x="180" width="60" height="40" as="geometry">
            <mxRectangle width="60" height="40" as="alternateBounds" />
          </mxGeometry>
        </mxCell>
        <mxCell id="MEUeXcoPpYQQ2M0SvhKJ-174" value="" style="shape=tableRow;horizontal=0;startSize=0;swimlaneHead=0;swimlaneBody=0;top=0;left=0;bottom=0;right=0;collapsible=0;dropTarget=0;fillColor=none;points=[[0,0.5],[1,0.5]];portConstraint=eastwest;fontSize=18;" parent="MEUeXcoPpYQQ2M0SvhKJ-168" vertex="1">
          <mxGeometry y="40" width="240" height="40" as="geometry" />
        </mxCell>
        <mxCell id="MEUeXcoPpYQQ2M0SvhKJ-175" value="50" style="shape=partialRectangle;html=1;whiteSpace=wrap;connectable=0;fillColor=none;top=0;left=0;bottom=0;right=0;overflow=hidden;fontSize=18;" parent="MEUeXcoPpYQQ2M0SvhKJ-174" vertex="1">
          <mxGeometry width="60" height="40" as="geometry">
            <mxRectangle width="60" height="40" as="alternateBounds" />
          </mxGeometry>
        </mxCell>
        <mxCell id="MEUeXcoPpYQQ2M0SvhKJ-176" value="0" style="shape=partialRectangle;html=1;whiteSpace=wrap;connectable=0;fillColor=none;top=0;left=0;bottom=0;right=0;overflow=hidden;fontSize=18;" parent="MEUeXcoPpYQQ2M0SvhKJ-174" vertex="1">
          <mxGeometry x="60" width="60" height="40" as="geometry">
            <mxRectangle width="60" height="40" as="alternateBounds" />
          </mxGeometry>
        </mxCell>
        <mxCell id="MEUeXcoPpYQQ2M0SvhKJ-177" value="15" style="shape=partialRectangle;html=1;whiteSpace=wrap;connectable=0;fillColor=none;top=0;left=0;bottom=0;right=0;overflow=hidden;fontSize=18;" parent="MEUeXcoPpYQQ2M0SvhKJ-174" vertex="1">
          <mxGeometry x="120" width="60" height="40" as="geometry">
            <mxRectangle width="60" height="40" as="alternateBounds" />
          </mxGeometry>
        </mxCell>
        <mxCell id="MEUeXcoPpYQQ2M0SvhKJ-178" value="5" style="shape=partialRectangle;html=1;whiteSpace=wrap;connectable=0;fillColor=none;top=0;left=0;bottom=0;right=0;overflow=hidden;fontSize=18;" parent="MEUeXcoPpYQQ2M0SvhKJ-174" vertex="1">
          <mxGeometry x="180" width="60" height="40" as="geometry">
            <mxRectangle width="60" height="40" as="alternateBounds" />
          </mxGeometry>
        </mxCell>
        <mxCell id="MEUeXcoPpYQQ2M0SvhKJ-179" style="shape=tableRow;horizontal=0;startSize=0;swimlaneHead=0;swimlaneBody=0;top=0;left=0;bottom=0;right=0;collapsible=0;dropTarget=0;fillColor=none;points=[[0,0.5],[1,0.5]];portConstraint=eastwest;fontSize=18;" parent="MEUeXcoPpYQQ2M0SvhKJ-168" vertex="1">
          <mxGeometry y="80" width="240" height="40" as="geometry" />
        </mxCell>
        <mxCell id="MEUeXcoPpYQQ2M0SvhKJ-180" value="30" style="shape=partialRectangle;html=1;whiteSpace=wrap;connectable=0;fillColor=none;top=0;left=0;bottom=0;right=0;overflow=hidden;fontSize=18;" parent="MEUeXcoPpYQQ2M0SvhKJ-179" vertex="1">
          <mxGeometry width="60" height="40" as="geometry">
            <mxRectangle width="60" height="40" as="alternateBounds" />
          </mxGeometry>
        </mxCell>
        <mxCell id="MEUeXcoPpYQQ2M0SvhKJ-181" value="35" style="shape=partialRectangle;html=1;whiteSpace=wrap;connectable=0;fillColor=none;top=0;left=0;bottom=0;right=0;overflow=hidden;fontSize=18;" parent="MEUeXcoPpYQQ2M0SvhKJ-179" vertex="1">
          <mxGeometry x="60" width="60" height="40" as="geometry">
            <mxRectangle width="60" height="40" as="alternateBounds" />
          </mxGeometry>
        </mxCell>
        <mxCell id="MEUeXcoPpYQQ2M0SvhKJ-182" value="0" style="shape=partialRectangle;html=1;whiteSpace=wrap;connectable=0;fillColor=none;top=0;left=0;bottom=0;right=0;overflow=hidden;fontSize=18;" parent="MEUeXcoPpYQQ2M0SvhKJ-179" vertex="1">
          <mxGeometry x="120" width="60" height="40" as="geometry">
            <mxRectangle width="60" height="40" as="alternateBounds" />
          </mxGeometry>
        </mxCell>
        <mxCell id="MEUeXcoPpYQQ2M0SvhKJ-183" value="15" style="shape=partialRectangle;html=1;whiteSpace=wrap;connectable=0;fillColor=none;top=0;left=0;bottom=0;right=0;overflow=hidden;fontSize=18;" parent="MEUeXcoPpYQQ2M0SvhKJ-179" vertex="1">
          <mxGeometry x="180" width="60" height="40" as="geometry">
            <mxRectangle width="60" height="40" as="alternateBounds" />
          </mxGeometry>
        </mxCell>
        <mxCell id="MEUeXcoPpYQQ2M0SvhKJ-184" value="" style="shape=tableRow;horizontal=0;startSize=0;swimlaneHead=0;swimlaneBody=0;top=0;left=0;bottom=0;right=0;collapsible=0;dropTarget=0;fillColor=none;points=[[0,0.5],[1,0.5]];portConstraint=eastwest;fontSize=18;" parent="MEUeXcoPpYQQ2M0SvhKJ-168" vertex="1">
          <mxGeometry y="120" width="240" height="40" as="geometry" />
        </mxCell>
        <mxCell id="MEUeXcoPpYQQ2M0SvhKJ-185" value="15" style="shape=partialRectangle;html=1;whiteSpace=wrap;connectable=0;fillColor=none;top=0;left=0;bottom=0;right=0;overflow=hidden;fontSize=18;" parent="MEUeXcoPpYQQ2M0SvhKJ-184" vertex="1">
          <mxGeometry width="60" height="40" as="geometry">
            <mxRectangle width="60" height="40" as="alternateBounds" />
          </mxGeometry>
        </mxCell>
        <mxCell id="MEUeXcoPpYQQ2M0SvhKJ-186" value="20" style="shape=partialRectangle;html=1;whiteSpace=wrap;connectable=0;fillColor=none;top=0;left=0;bottom=0;right=0;overflow=hidden;fontSize=18;" parent="MEUeXcoPpYQQ2M0SvhKJ-184" vertex="1">
          <mxGeometry x="60" width="60" height="40" as="geometry">
            <mxRectangle width="60" height="40" as="alternateBounds" />
          </mxGeometry>
        </mxCell>
        <mxCell id="MEUeXcoPpYQQ2M0SvhKJ-187" value="5" style="shape=partialRectangle;html=1;whiteSpace=wrap;connectable=0;fillColor=none;top=0;left=0;bottom=0;right=0;overflow=hidden;pointerEvents=1;fontSize=18;" parent="MEUeXcoPpYQQ2M0SvhKJ-184" vertex="1">
          <mxGeometry x="120" width="60" height="40" as="geometry">
            <mxRectangle width="60" height="40" as="alternateBounds" />
          </mxGeometry>
        </mxCell>
        <mxCell id="MEUeXcoPpYQQ2M0SvhKJ-188" value="0" style="shape=partialRectangle;html=1;whiteSpace=wrap;connectable=0;fillColor=none;top=0;left=0;bottom=0;right=0;overflow=hidden;pointerEvents=1;fontSize=18;" parent="MEUeXcoPpYQQ2M0SvhKJ-184" vertex="1">
          <mxGeometry x="180" width="60" height="40" as="geometry">
            <mxRectangle width="60" height="40" as="alternateBounds" />
          </mxGeometry>
        </mxCell>
        <mxCell id="MEUeXcoPpYQQ2M0SvhKJ-189" value="A&lt;sup&gt;2&lt;/sup&gt;&lt;sub&gt;&amp;nbsp;&lt;/sub&gt;=" style="text;html=1;align=center;verticalAlign=middle;resizable=0;points=[];autosize=1;strokeColor=none;fillColor=none;fontSize=18;" parent="1" vertex="1">
          <mxGeometry x="910" y="1075" width="50" height="40" as="geometry" />
        </mxCell>
        <mxCell id="MEUeXcoPpYQQ2M0SvhKJ-190" value="" style="endArrow=none;html=1;rounded=0;fontSize=18;" parent="1" edge="1">
          <mxGeometry width="50" height="50" relative="1" as="geometry">
            <mxPoint x="50" y="1260" as="sourcePoint" />
            <mxPoint x="1716.9230769230771" y="1260" as="targetPoint" />
          </mxGeometry>
        </mxCell>
        <mxCell id="MEUeXcoPpYQQ2M0SvhKJ-191" value="" style="shape=table;html=1;whiteSpace=wrap;startSize=0;container=1;collapsible=0;childLayout=tableLayout;fontSize=18;" parent="1" vertex="1">
          <mxGeometry x="265" y="1440" width="240" height="160" as="geometry" />
        </mxCell>
        <mxCell id="MEUeXcoPpYQQ2M0SvhKJ-192" value="" style="shape=tableRow;horizontal=0;startSize=0;swimlaneHead=0;swimlaneBody=0;top=0;left=0;bottom=0;right=0;collapsible=0;dropTarget=0;fillColor=none;points=[[0,0.5],[1,0.5]];portConstraint=eastwest;fontSize=18;" parent="MEUeXcoPpYQQ2M0SvhKJ-191" vertex="1">
          <mxGeometry width="240" height="40" as="geometry" />
        </mxCell>
        <mxCell id="MEUeXcoPpYQQ2M0SvhKJ-193" value="0" style="shape=partialRectangle;html=1;whiteSpace=wrap;connectable=0;fillColor=none;top=0;left=0;bottom=0;right=0;overflow=hidden;fontSize=18;" parent="MEUeXcoPpYQQ2M0SvhKJ-192" vertex="1">
          <mxGeometry width="60" height="40" as="geometry">
            <mxRectangle width="60" height="40" as="alternateBounds" />
          </mxGeometry>
        </mxCell>
        <mxCell id="MEUeXcoPpYQQ2M0SvhKJ-194" value="5" style="shape=partialRectangle;html=1;whiteSpace=wrap;connectable=0;fillColor=none;top=0;left=0;bottom=0;right=0;overflow=hidden;fontSize=18;" parent="MEUeXcoPpYQQ2M0SvhKJ-192" vertex="1">
          <mxGeometry x="60" width="60" height="40" as="geometry">
            <mxRectangle width="60" height="40" as="alternateBounds" />
          </mxGeometry>
        </mxCell>
        <mxCell id="MEUeXcoPpYQQ2M0SvhKJ-195" value="20" style="shape=partialRectangle;html=1;whiteSpace=wrap;connectable=0;fillColor=none;top=0;left=0;bottom=0;right=0;overflow=hidden;fontSize=18;" parent="MEUeXcoPpYQQ2M0SvhKJ-192" vertex="1">
          <mxGeometry x="120" width="60" height="40" as="geometry">
            <mxRectangle width="60" height="40" as="alternateBounds" />
          </mxGeometry>
        </mxCell>
        <mxCell id="MEUeXcoPpYQQ2M0SvhKJ-196" value="10" style="shape=partialRectangle;html=1;whiteSpace=wrap;connectable=0;fillColor=none;top=0;left=0;bottom=0;right=0;overflow=hidden;fontSize=18;" parent="MEUeXcoPpYQQ2M0SvhKJ-192" vertex="1">
          <mxGeometry x="180" width="60" height="40" as="geometry">
            <mxRectangle width="60" height="40" as="alternateBounds" />
          </mxGeometry>
        </mxCell>
        <mxCell id="MEUeXcoPpYQQ2M0SvhKJ-197" value="" style="shape=tableRow;horizontal=0;startSize=0;swimlaneHead=0;swimlaneBody=0;top=0;left=0;bottom=0;right=0;collapsible=0;dropTarget=0;fillColor=none;points=[[0,0.5],[1,0.5]];portConstraint=eastwest;fontSize=18;" parent="MEUeXcoPpYQQ2M0SvhKJ-191" vertex="1">
          <mxGeometry y="40" width="240" height="40" as="geometry" />
        </mxCell>
        <mxCell id="MEUeXcoPpYQQ2M0SvhKJ-198" value="50" style="shape=partialRectangle;html=1;whiteSpace=wrap;connectable=0;fillColor=none;top=0;left=0;bottom=0;right=0;overflow=hidden;fontSize=18;" parent="MEUeXcoPpYQQ2M0SvhKJ-197" vertex="1">
          <mxGeometry width="60" height="40" as="geometry">
            <mxRectangle width="60" height="40" as="alternateBounds" />
          </mxGeometry>
        </mxCell>
        <mxCell id="MEUeXcoPpYQQ2M0SvhKJ-199" value="0" style="shape=partialRectangle;html=1;whiteSpace=wrap;connectable=0;fillColor=none;top=0;left=0;bottom=0;right=0;overflow=hidden;fontSize=18;" parent="MEUeXcoPpYQQ2M0SvhKJ-197" vertex="1">
          <mxGeometry x="60" width="60" height="40" as="geometry">
            <mxRectangle width="60" height="40" as="alternateBounds" />
          </mxGeometry>
        </mxCell>
        <mxCell id="MEUeXcoPpYQQ2M0SvhKJ-200" value="15" style="shape=partialRectangle;html=1;whiteSpace=wrap;connectable=0;fillColor=none;top=0;left=0;bottom=0;right=0;overflow=hidden;fontSize=18;" parent="MEUeXcoPpYQQ2M0SvhKJ-197" vertex="1">
          <mxGeometry x="120" width="60" height="40" as="geometry">
            <mxRectangle width="60" height="40" as="alternateBounds" />
          </mxGeometry>
        </mxCell>
        <mxCell id="MEUeXcoPpYQQ2M0SvhKJ-201" value="5" style="shape=partialRectangle;html=1;whiteSpace=wrap;connectable=0;fillColor=none;top=0;left=0;bottom=0;right=0;overflow=hidden;fontSize=18;" parent="MEUeXcoPpYQQ2M0SvhKJ-197" vertex="1">
          <mxGeometry x="180" width="60" height="40" as="geometry">
            <mxRectangle width="60" height="40" as="alternateBounds" />
          </mxGeometry>
        </mxCell>
        <mxCell id="MEUeXcoPpYQQ2M0SvhKJ-202" style="shape=tableRow;horizontal=0;startSize=0;swimlaneHead=0;swimlaneBody=0;top=0;left=0;bottom=0;right=0;collapsible=0;dropTarget=0;fillColor=none;points=[[0,0.5],[1,0.5]];portConstraint=eastwest;fontSize=18;" parent="MEUeXcoPpYQQ2M0SvhKJ-191" vertex="1">
          <mxGeometry y="80" width="240" height="40" as="geometry" />
        </mxCell>
        <mxCell id="MEUeXcoPpYQQ2M0SvhKJ-203" value="30" style="shape=partialRectangle;html=1;whiteSpace=wrap;connectable=0;fillColor=none;top=0;left=0;bottom=0;right=0;overflow=hidden;fontSize=18;" parent="MEUeXcoPpYQQ2M0SvhKJ-202" vertex="1">
          <mxGeometry width="60" height="40" as="geometry">
            <mxRectangle width="60" height="40" as="alternateBounds" />
          </mxGeometry>
        </mxCell>
        <mxCell id="MEUeXcoPpYQQ2M0SvhKJ-204" value="35" style="shape=partialRectangle;html=1;whiteSpace=wrap;connectable=0;fillColor=none;top=0;left=0;bottom=0;right=0;overflow=hidden;fontSize=18;" parent="MEUeXcoPpYQQ2M0SvhKJ-202" vertex="1">
          <mxGeometry x="60" width="60" height="40" as="geometry">
            <mxRectangle width="60" height="40" as="alternateBounds" />
          </mxGeometry>
        </mxCell>
        <mxCell id="MEUeXcoPpYQQ2M0SvhKJ-205" value="0" style="shape=partialRectangle;html=1;whiteSpace=wrap;connectable=0;fillColor=none;top=0;left=0;bottom=0;right=0;overflow=hidden;fontSize=18;" parent="MEUeXcoPpYQQ2M0SvhKJ-202" vertex="1">
          <mxGeometry x="120" width="60" height="40" as="geometry">
            <mxRectangle width="60" height="40" as="alternateBounds" />
          </mxGeometry>
        </mxCell>
        <mxCell id="MEUeXcoPpYQQ2M0SvhKJ-206" value="15" style="shape=partialRectangle;html=1;whiteSpace=wrap;connectable=0;fillColor=none;top=0;left=0;bottom=0;right=0;overflow=hidden;fontSize=18;" parent="MEUeXcoPpYQQ2M0SvhKJ-202" vertex="1">
          <mxGeometry x="180" width="60" height="40" as="geometry">
            <mxRectangle width="60" height="40" as="alternateBounds" />
          </mxGeometry>
        </mxCell>
        <mxCell id="MEUeXcoPpYQQ2M0SvhKJ-207" value="" style="shape=tableRow;horizontal=0;startSize=0;swimlaneHead=0;swimlaneBody=0;top=0;left=0;bottom=0;right=0;collapsible=0;dropTarget=0;fillColor=none;points=[[0,0.5],[1,0.5]];portConstraint=eastwest;fontSize=18;" parent="MEUeXcoPpYQQ2M0SvhKJ-191" vertex="1">
          <mxGeometry y="120" width="240" height="40" as="geometry" />
        </mxCell>
        <mxCell id="MEUeXcoPpYQQ2M0SvhKJ-208" value="15" style="shape=partialRectangle;html=1;whiteSpace=wrap;connectable=0;fillColor=none;top=0;left=0;bottom=0;right=0;overflow=hidden;fontSize=18;" parent="MEUeXcoPpYQQ2M0SvhKJ-207" vertex="1">
          <mxGeometry width="60" height="40" as="geometry">
            <mxRectangle width="60" height="40" as="alternateBounds" />
          </mxGeometry>
        </mxCell>
        <mxCell id="MEUeXcoPpYQQ2M0SvhKJ-209" value="20" style="shape=partialRectangle;html=1;whiteSpace=wrap;connectable=0;fillColor=none;top=0;left=0;bottom=0;right=0;overflow=hidden;fontSize=18;" parent="MEUeXcoPpYQQ2M0SvhKJ-207" vertex="1">
          <mxGeometry x="60" width="60" height="40" as="geometry">
            <mxRectangle width="60" height="40" as="alternateBounds" />
          </mxGeometry>
        </mxCell>
        <mxCell id="MEUeXcoPpYQQ2M0SvhKJ-210" value="5" style="shape=partialRectangle;html=1;whiteSpace=wrap;connectable=0;fillColor=none;top=0;left=0;bottom=0;right=0;overflow=hidden;pointerEvents=1;fontSize=18;" parent="MEUeXcoPpYQQ2M0SvhKJ-207" vertex="1">
          <mxGeometry x="120" width="60" height="40" as="geometry">
            <mxRectangle width="60" height="40" as="alternateBounds" />
          </mxGeometry>
        </mxCell>
        <mxCell id="MEUeXcoPpYQQ2M0SvhKJ-211" value="0" style="shape=partialRectangle;html=1;whiteSpace=wrap;connectable=0;fillColor=none;top=0;left=0;bottom=0;right=0;overflow=hidden;pointerEvents=1;fontSize=18;" parent="MEUeXcoPpYQQ2M0SvhKJ-207" vertex="1">
          <mxGeometry x="180" width="60" height="40" as="geometry">
            <mxRectangle width="60" height="40" as="alternateBounds" />
          </mxGeometry>
        </mxCell>
        <mxCell id="MEUeXcoPpYQQ2M0SvhKJ-212" value="A&lt;sup&gt;2&lt;/sup&gt;&lt;sub&gt;&amp;nbsp;&lt;/sub&gt;=" style="text;html=1;align=center;verticalAlign=middle;resizable=0;points=[];autosize=1;strokeColor=none;fillColor=none;fontSize=18;" parent="1" vertex="1">
          <mxGeometry x="190" y="1495" width="50" height="40" as="geometry" />
        </mxCell>
        <mxCell id="MEUeXcoPpYQQ2M0SvhKJ-213" value="&lt;span style=&quot;box-sizing: border-box ; color: rgb(51 , 51 , 51) ; font-family: &amp;#34;poppins&amp;#34; , sans-serif ; font-size: 16px ; text-align: left ; background-color: rgb(255 , 255 , 255)&quot;&gt;Updating matrix A&lt;/span&gt;&lt;span style=&quot;box-sizing: border-box ; color: rgb(51 , 51 , 51) ; font-family: &amp;#34;poppins&amp;#34; , sans-serif ; text-align: left ; background-color: rgb(255 , 255 , 255) ; font-size: 10px&quot;&gt;&lt;sup&gt;3&lt;/sup&gt;&lt;/span&gt;&lt;span style=&quot;box-sizing: border-box ; color: rgb(51 , 51 , 51) ; font-family: &amp;#34;poppins&amp;#34; , sans-serif ; text-align: left ; background-color: rgb(255 , 255 , 255)&quot;&gt;&lt;span style=&quot;font-size: 16px&quot;&gt;&amp;nbsp;which contains the distance between each node with &lt;/span&gt;&lt;b style=&quot;font-size: 16px&quot;&gt;‘3’&lt;/b&gt;&lt;span style=&quot;font-size: 16px&quot;&gt; as an intermediate node. &lt;/span&gt;&lt;br&gt;&lt;span style=&quot;font-size: 16px&quot;&gt;Update distance if minimum distance value smaller than existing distance value found.&lt;/span&gt;&lt;/span&gt;" style="text;html=1;align=center;verticalAlign=middle;resizable=0;points=[];autosize=1;strokeColor=none;fillColor=none;fontSize=18;" parent="1" vertex="1">
          <mxGeometry x="290" y="1290" width="730" height="50" as="geometry" />
        </mxCell>
        <mxCell id="MEUeXcoPpYQQ2M0SvhKJ-214" value="&lt;font style=&quot;font-size: 19px&quot;&gt;&lt;span style=&quot;background-color: transparent&quot;&gt;‌&lt;/span&gt;&lt;span style=&quot;background-color: transparent ; font-weight: bold ; color: rgb(242 , 73 , 75) ; font-family: &amp;#34;lato&amp;#34;&quot;&gt;S&lt;/span&gt;&lt;sup style=&quot;font-weight: bold ; color: rgb(242 , 73 , 75) ; font-family: &amp;#34;lato&amp;#34;&quot;&gt;k&lt;/sup&gt;&lt;span style=&quot;background-color: transparent ; font-weight: bold ; color: rgb(242 , 73 , 75) ; font-family: &amp;#34;lato&amp;#34;&quot;&gt;(i,j) = min(&lt;/span&gt;&lt;span style=&quot;background-color: transparent ; font-weight: bold ; color: rgb(242 , 73 , 75) ; font-family: &amp;#34;lato&amp;#34;&quot;&gt;S&lt;/span&gt;&lt;sup style=&quot;font-weight: bold ; color: rgb(242 , 73 , 75) ; font-family: &amp;#34;lato&amp;#34;&quot;&gt;k&lt;/sup&gt;&lt;sup style=&quot;font-weight: bold ; color: rgb(242 , 73 , 75) ; font-family: &amp;#34;lato&amp;#34;&quot;&gt;-1&lt;/sup&gt;&lt;span style=&quot;background-color: transparent ; font-weight: bold ; color: rgb(242 , 73 , 75) ; font-family: &amp;#34;lato&amp;#34;&quot;&gt;(i,j) , &lt;/span&gt;&lt;span style=&quot;background-color: transparent ; font-weight: bold ; color: rgb(242 , 73 , 75) ; font-family: &amp;#34;lato&amp;#34;&quot;&gt;S&lt;/span&gt;&lt;sup style=&quot;font-weight: bold ; color: rgb(242 , 73 , 75) ; font-family: &amp;#34;lato&amp;#34;&quot;&gt;k&lt;/sup&gt;&lt;sup style=&quot;font-weight: bold ; color: rgb(242 , 73 , 75) ; font-family: &amp;#34;lato&amp;#34;&quot;&gt;-1&lt;/sup&gt;&lt;span style=&quot;background-color: transparent ; font-weight: bold ; color: rgb(242 , 73 , 75) ; font-family: &amp;#34;lato&amp;#34;&quot;&gt;(i, k) + &lt;/span&gt;&lt;span style=&quot;background-color: transparent ; font-weight: bold ; color: rgb(242 , 73 , 75) ; font-family: &amp;#34;lato&amp;#34;&quot;&gt;S&lt;/span&gt;&lt;sup style=&quot;font-weight: bold ; color: rgb(242 , 73 , 75) ; font-family: &amp;#34;lato&amp;#34;&quot;&gt;k&lt;/sup&gt;&lt;sup style=&quot;font-weight: bold ; color: rgb(242 , 73 , 75) ; font-family: &amp;#34;lato&amp;#34;&quot;&gt;-1&lt;/sup&gt;&lt;span style=&quot;background-color: transparent ; font-weight: bold ; color: rgb(242 , 73 , 75) ; font-family: &amp;#34;lato&amp;#34;&quot;&gt;(k, j))&lt;/span&gt;&lt;/font&gt;" style="text;html=1;align=center;verticalAlign=middle;resizable=0;points=[];autosize=1;strokeColor=none;fillColor=none;fontSize=18;" parent="1" vertex="1">
          <mxGeometry x="460" y="1345" width="370" height="30" as="geometry" />
        </mxCell>
        <mxCell id="MEUeXcoPpYQQ2M0SvhKJ-215" value="A&lt;span style=&quot;font-size: 15.8333px&quot;&gt;&lt;sup&gt;3&lt;/sup&gt;&lt;/span&gt;[2, 1]= min(A&lt;sup&gt;2&lt;/sup&gt;(2,1), A&lt;sup&gt;2&lt;/sup&gt;(2,3)+A&lt;sup&gt;2&lt;/sup&gt;(3,1))&lt;br&gt;= min(50, 15+30) = 45" style="text;html=1;align=center;verticalAlign=middle;resizable=0;points=[];autosize=1;strokeColor=none;fillColor=none;fontSize=19;" parent="1" vertex="1">
          <mxGeometry x="570" y="1490" width="340" height="60" as="geometry" />
        </mxCell>
        <mxCell id="MEUeXcoPpYQQ2M0SvhKJ-216" value="" style="shape=table;html=1;whiteSpace=wrap;startSize=0;container=1;collapsible=0;childLayout=tableLayout;fontSize=18;" parent="1" vertex="1">
          <mxGeometry x="1015" y="1440" width="240" height="160" as="geometry" />
        </mxCell>
        <mxCell id="MEUeXcoPpYQQ2M0SvhKJ-217" value="" style="shape=tableRow;horizontal=0;startSize=0;swimlaneHead=0;swimlaneBody=0;top=0;left=0;bottom=0;right=0;collapsible=0;dropTarget=0;fillColor=none;points=[[0,0.5],[1,0.5]];portConstraint=eastwest;fontSize=18;" parent="MEUeXcoPpYQQ2M0SvhKJ-216" vertex="1">
          <mxGeometry width="240" height="40" as="geometry" />
        </mxCell>
        <mxCell id="MEUeXcoPpYQQ2M0SvhKJ-218" value="0" style="shape=partialRectangle;html=1;whiteSpace=wrap;connectable=0;fillColor=none;top=0;left=0;bottom=0;right=0;overflow=hidden;fontSize=18;" parent="MEUeXcoPpYQQ2M0SvhKJ-217" vertex="1">
          <mxGeometry width="60" height="40" as="geometry">
            <mxRectangle width="60" height="40" as="alternateBounds" />
          </mxGeometry>
        </mxCell>
        <mxCell id="MEUeXcoPpYQQ2M0SvhKJ-219" value="5" style="shape=partialRectangle;html=1;whiteSpace=wrap;connectable=0;fillColor=none;top=0;left=0;bottom=0;right=0;overflow=hidden;fontSize=18;" parent="MEUeXcoPpYQQ2M0SvhKJ-217" vertex="1">
          <mxGeometry x="60" width="60" height="40" as="geometry">
            <mxRectangle width="60" height="40" as="alternateBounds" />
          </mxGeometry>
        </mxCell>
        <mxCell id="MEUeXcoPpYQQ2M0SvhKJ-220" value="20" style="shape=partialRectangle;html=1;whiteSpace=wrap;connectable=0;fillColor=none;top=0;left=0;bottom=0;right=0;overflow=hidden;fontSize=18;" parent="MEUeXcoPpYQQ2M0SvhKJ-217" vertex="1">
          <mxGeometry x="120" width="60" height="40" as="geometry">
            <mxRectangle width="60" height="40" as="alternateBounds" />
          </mxGeometry>
        </mxCell>
        <mxCell id="MEUeXcoPpYQQ2M0SvhKJ-221" value="10" style="shape=partialRectangle;html=1;whiteSpace=wrap;connectable=0;fillColor=none;top=0;left=0;bottom=0;right=0;overflow=hidden;fontSize=18;" parent="MEUeXcoPpYQQ2M0SvhKJ-217" vertex="1">
          <mxGeometry x="180" width="60" height="40" as="geometry">
            <mxRectangle width="60" height="40" as="alternateBounds" />
          </mxGeometry>
        </mxCell>
        <mxCell id="MEUeXcoPpYQQ2M0SvhKJ-222" value="" style="shape=tableRow;horizontal=0;startSize=0;swimlaneHead=0;swimlaneBody=0;top=0;left=0;bottom=0;right=0;collapsible=0;dropTarget=0;fillColor=none;points=[[0,0.5],[1,0.5]];portConstraint=eastwest;fontSize=18;" parent="MEUeXcoPpYQQ2M0SvhKJ-216" vertex="1">
          <mxGeometry y="40" width="240" height="40" as="geometry" />
        </mxCell>
        <mxCell id="MEUeXcoPpYQQ2M0SvhKJ-223" value="&lt;span style=&quot;background-color: rgb(255 , 0 , 0)&quot;&gt;45&lt;/span&gt;" style="shape=partialRectangle;html=1;whiteSpace=wrap;connectable=0;fillColor=none;top=0;left=0;bottom=0;right=0;overflow=hidden;fontSize=18;" parent="MEUeXcoPpYQQ2M0SvhKJ-222" vertex="1">
          <mxGeometry width="60" height="40" as="geometry">
            <mxRectangle width="60" height="40" as="alternateBounds" />
          </mxGeometry>
        </mxCell>
        <mxCell id="MEUeXcoPpYQQ2M0SvhKJ-224" value="0" style="shape=partialRectangle;html=1;whiteSpace=wrap;connectable=0;fillColor=none;top=0;left=0;bottom=0;right=0;overflow=hidden;fontSize=18;" parent="MEUeXcoPpYQQ2M0SvhKJ-222" vertex="1">
          <mxGeometry x="60" width="60" height="40" as="geometry">
            <mxRectangle width="60" height="40" as="alternateBounds" />
          </mxGeometry>
        </mxCell>
        <mxCell id="MEUeXcoPpYQQ2M0SvhKJ-225" value="15" style="shape=partialRectangle;html=1;whiteSpace=wrap;connectable=0;fillColor=none;top=0;left=0;bottom=0;right=0;overflow=hidden;fontSize=18;" parent="MEUeXcoPpYQQ2M0SvhKJ-222" vertex="1">
          <mxGeometry x="120" width="60" height="40" as="geometry">
            <mxRectangle width="60" height="40" as="alternateBounds" />
          </mxGeometry>
        </mxCell>
        <mxCell id="MEUeXcoPpYQQ2M0SvhKJ-226" value="5" style="shape=partialRectangle;html=1;whiteSpace=wrap;connectable=0;fillColor=none;top=0;left=0;bottom=0;right=0;overflow=hidden;fontSize=18;" parent="MEUeXcoPpYQQ2M0SvhKJ-222" vertex="1">
          <mxGeometry x="180" width="60" height="40" as="geometry">
            <mxRectangle width="60" height="40" as="alternateBounds" />
          </mxGeometry>
        </mxCell>
        <mxCell id="MEUeXcoPpYQQ2M0SvhKJ-227" style="shape=tableRow;horizontal=0;startSize=0;swimlaneHead=0;swimlaneBody=0;top=0;left=0;bottom=0;right=0;collapsible=0;dropTarget=0;fillColor=none;points=[[0,0.5],[1,0.5]];portConstraint=eastwest;fontSize=18;" parent="MEUeXcoPpYQQ2M0SvhKJ-216" vertex="1">
          <mxGeometry y="80" width="240" height="40" as="geometry" />
        </mxCell>
        <mxCell id="MEUeXcoPpYQQ2M0SvhKJ-228" value="30" style="shape=partialRectangle;html=1;whiteSpace=wrap;connectable=0;fillColor=none;top=0;left=0;bottom=0;right=0;overflow=hidden;fontSize=18;" parent="MEUeXcoPpYQQ2M0SvhKJ-227" vertex="1">
          <mxGeometry width="60" height="40" as="geometry">
            <mxRectangle width="60" height="40" as="alternateBounds" />
          </mxGeometry>
        </mxCell>
        <mxCell id="MEUeXcoPpYQQ2M0SvhKJ-229" value="35" style="shape=partialRectangle;html=1;whiteSpace=wrap;connectable=0;fillColor=none;top=0;left=0;bottom=0;right=0;overflow=hidden;fontSize=18;" parent="MEUeXcoPpYQQ2M0SvhKJ-227" vertex="1">
          <mxGeometry x="60" width="60" height="40" as="geometry">
            <mxRectangle width="60" height="40" as="alternateBounds" />
          </mxGeometry>
        </mxCell>
        <mxCell id="MEUeXcoPpYQQ2M0SvhKJ-230" value="0" style="shape=partialRectangle;html=1;whiteSpace=wrap;connectable=0;fillColor=none;top=0;left=0;bottom=0;right=0;overflow=hidden;fontSize=18;" parent="MEUeXcoPpYQQ2M0SvhKJ-227" vertex="1">
          <mxGeometry x="120" width="60" height="40" as="geometry">
            <mxRectangle width="60" height="40" as="alternateBounds" />
          </mxGeometry>
        </mxCell>
        <mxCell id="MEUeXcoPpYQQ2M0SvhKJ-231" value="15" style="shape=partialRectangle;html=1;whiteSpace=wrap;connectable=0;fillColor=none;top=0;left=0;bottom=0;right=0;overflow=hidden;fontSize=18;" parent="MEUeXcoPpYQQ2M0SvhKJ-227" vertex="1">
          <mxGeometry x="180" width="60" height="40" as="geometry">
            <mxRectangle width="60" height="40" as="alternateBounds" />
          </mxGeometry>
        </mxCell>
        <mxCell id="MEUeXcoPpYQQ2M0SvhKJ-232" value="" style="shape=tableRow;horizontal=0;startSize=0;swimlaneHead=0;swimlaneBody=0;top=0;left=0;bottom=0;right=0;collapsible=0;dropTarget=0;fillColor=none;points=[[0,0.5],[1,0.5]];portConstraint=eastwest;fontSize=18;" parent="MEUeXcoPpYQQ2M0SvhKJ-216" vertex="1">
          <mxGeometry y="120" width="240" height="40" as="geometry" />
        </mxCell>
        <mxCell id="MEUeXcoPpYQQ2M0SvhKJ-233" value="15" style="shape=partialRectangle;html=1;whiteSpace=wrap;connectable=0;fillColor=none;top=0;left=0;bottom=0;right=0;overflow=hidden;fontSize=18;" parent="MEUeXcoPpYQQ2M0SvhKJ-232" vertex="1">
          <mxGeometry width="60" height="40" as="geometry">
            <mxRectangle width="60" height="40" as="alternateBounds" />
          </mxGeometry>
        </mxCell>
        <mxCell id="MEUeXcoPpYQQ2M0SvhKJ-234" value="20" style="shape=partialRectangle;html=1;whiteSpace=wrap;connectable=0;fillColor=none;top=0;left=0;bottom=0;right=0;overflow=hidden;fontSize=18;" parent="MEUeXcoPpYQQ2M0SvhKJ-232" vertex="1">
          <mxGeometry x="60" width="60" height="40" as="geometry">
            <mxRectangle width="60" height="40" as="alternateBounds" />
          </mxGeometry>
        </mxCell>
        <mxCell id="MEUeXcoPpYQQ2M0SvhKJ-235" value="5" style="shape=partialRectangle;html=1;whiteSpace=wrap;connectable=0;fillColor=none;top=0;left=0;bottom=0;right=0;overflow=hidden;pointerEvents=1;fontSize=18;" parent="MEUeXcoPpYQQ2M0SvhKJ-232" vertex="1">
          <mxGeometry x="120" width="60" height="40" as="geometry">
            <mxRectangle width="60" height="40" as="alternateBounds" />
          </mxGeometry>
        </mxCell>
        <mxCell id="MEUeXcoPpYQQ2M0SvhKJ-236" value="0" style="shape=partialRectangle;html=1;whiteSpace=wrap;connectable=0;fillColor=none;top=0;left=0;bottom=0;right=0;overflow=hidden;pointerEvents=1;fontSize=18;" parent="MEUeXcoPpYQQ2M0SvhKJ-232" vertex="1">
          <mxGeometry x="180" width="60" height="40" as="geometry">
            <mxRectangle width="60" height="40" as="alternateBounds" />
          </mxGeometry>
        </mxCell>
        <mxCell id="MEUeXcoPpYQQ2M0SvhKJ-237" value="A&lt;sup&gt;3&lt;/sup&gt;&lt;sub&gt;&amp;nbsp;&lt;/sub&gt;=" style="text;html=1;align=center;verticalAlign=middle;resizable=0;points=[];autosize=1;strokeColor=none;fillColor=none;fontSize=18;" parent="1" vertex="1">
          <mxGeometry x="940" y="1495" width="50" height="40" as="geometry" />
        </mxCell>
        <mxCell id="MEUeXcoPpYQQ2M0SvhKJ-238" value="" style="endArrow=none;html=1;rounded=0;fontSize=18;" parent="1" edge="1">
          <mxGeometry width="50" height="50" relative="1" as="geometry">
            <mxPoint x="50" y="1660" as="sourcePoint" />
            <mxPoint x="1716.9230769230771" y="1660" as="targetPoint" />
          </mxGeometry>
        </mxCell>
        <mxCell id="MEUeXcoPpYQQ2M0SvhKJ-239" value="&lt;span style=&quot;box-sizing: border-box ; color: rgb(51 , 51 , 51) ; font-family: &amp;#34;poppins&amp;#34; , sans-serif ; font-size: 16px ; text-align: left ; background-color: rgb(255 , 255 , 255)&quot;&gt;Updating matrix A&lt;/span&gt;&lt;span style=&quot;box-sizing: border-box ; color: rgb(51 , 51 , 51) ; font-family: &amp;#34;poppins&amp;#34; , sans-serif ; text-align: left ; background-color: rgb(255 , 255 , 255) ; font-size: 10px&quot;&gt;&lt;sup&gt;4&lt;/sup&gt;&lt;/span&gt;&lt;span style=&quot;box-sizing: border-box ; color: rgb(51 , 51 , 51) ; font-family: &amp;#34;poppins&amp;#34; , sans-serif ; text-align: left ; background-color: rgb(255 , 255 , 255)&quot;&gt;&lt;span style=&quot;font-size: 16px&quot;&gt;&amp;nbsp;which contains the distance between each node with &lt;/span&gt;&lt;b style=&quot;font-size: 16px&quot;&gt;‘4’&lt;/b&gt;&lt;span style=&quot;font-size: 16px&quot;&gt; as an intermediate node. &lt;/span&gt;&lt;br&gt;&lt;span style=&quot;font-size: 16px&quot;&gt;Update distance if minimum distance value smaller than existing distance value found.&lt;/span&gt;&lt;/span&gt;" style="text;html=1;align=center;verticalAlign=middle;resizable=0;points=[];autosize=1;strokeColor=none;fillColor=none;fontSize=18;" parent="1" vertex="1">
          <mxGeometry x="320" y="1680" width="730" height="50" as="geometry" />
        </mxCell>
        <mxCell id="MEUeXcoPpYQQ2M0SvhKJ-240" value="&lt;font style=&quot;font-size: 19px&quot;&gt;&lt;span style=&quot;background-color: transparent&quot;&gt;‌&lt;/span&gt;&lt;span style=&quot;background-color: transparent ; font-weight: bold ; color: rgb(242 , 73 , 75) ; font-family: &amp;#34;lato&amp;#34;&quot;&gt;S&lt;/span&gt;&lt;sup style=&quot;font-weight: bold ; color: rgb(242 , 73 , 75) ; font-family: &amp;#34;lato&amp;#34;&quot;&gt;k&lt;/sup&gt;&lt;span style=&quot;background-color: transparent ; font-weight: bold ; color: rgb(242 , 73 , 75) ; font-family: &amp;#34;lato&amp;#34;&quot;&gt;(i,j) = min(&lt;/span&gt;&lt;span style=&quot;background-color: transparent ; font-weight: bold ; color: rgb(242 , 73 , 75) ; font-family: &amp;#34;lato&amp;#34;&quot;&gt;S&lt;/span&gt;&lt;sup style=&quot;font-weight: bold ; color: rgb(242 , 73 , 75) ; font-family: &amp;#34;lato&amp;#34;&quot;&gt;k&lt;/sup&gt;&lt;sup style=&quot;font-weight: bold ; color: rgb(242 , 73 , 75) ; font-family: &amp;#34;lato&amp;#34;&quot;&gt;-1&lt;/sup&gt;&lt;span style=&quot;background-color: transparent ; font-weight: bold ; color: rgb(242 , 73 , 75) ; font-family: &amp;#34;lato&amp;#34;&quot;&gt;(i,j) , &lt;/span&gt;&lt;span style=&quot;background-color: transparent ; font-weight: bold ; color: rgb(242 , 73 , 75) ; font-family: &amp;#34;lato&amp;#34;&quot;&gt;S&lt;/span&gt;&lt;sup style=&quot;font-weight: bold ; color: rgb(242 , 73 , 75) ; font-family: &amp;#34;lato&amp;#34;&quot;&gt;k&lt;/sup&gt;&lt;sup style=&quot;font-weight: bold ; color: rgb(242 , 73 , 75) ; font-family: &amp;#34;lato&amp;#34;&quot;&gt;-1&lt;/sup&gt;&lt;span style=&quot;background-color: transparent ; font-weight: bold ; color: rgb(242 , 73 , 75) ; font-family: &amp;#34;lato&amp;#34;&quot;&gt;(i, k) + &lt;/span&gt;&lt;span style=&quot;background-color: transparent ; font-weight: bold ; color: rgb(242 , 73 , 75) ; font-family: &amp;#34;lato&amp;#34;&quot;&gt;S&lt;/span&gt;&lt;sup style=&quot;font-weight: bold ; color: rgb(242 , 73 , 75) ; font-family: &amp;#34;lato&amp;#34;&quot;&gt;k&lt;/sup&gt;&lt;sup style=&quot;font-weight: bold ; color: rgb(242 , 73 , 75) ; font-family: &amp;#34;lato&amp;#34;&quot;&gt;-1&lt;/sup&gt;&lt;span style=&quot;background-color: transparent ; font-weight: bold ; color: rgb(242 , 73 , 75) ; font-family: &amp;#34;lato&amp;#34;&quot;&gt;(k, j))&lt;/span&gt;&lt;/font&gt;" style="text;html=1;align=center;verticalAlign=middle;resizable=0;points=[];autosize=1;strokeColor=none;fillColor=none;fontSize=18;" parent="1" vertex="1">
          <mxGeometry x="490" y="1735" width="370" height="30" as="geometry" />
        </mxCell>
        <mxCell id="MEUeXcoPpYQQ2M0SvhKJ-241" value="" style="shape=table;html=1;whiteSpace=wrap;startSize=0;container=1;collapsible=0;childLayout=tableLayout;fontSize=18;" parent="1" vertex="1">
          <mxGeometry x="295" y="1820" width="240" height="160" as="geometry" />
        </mxCell>
        <mxCell id="MEUeXcoPpYQQ2M0SvhKJ-242" value="" style="shape=tableRow;horizontal=0;startSize=0;swimlaneHead=0;swimlaneBody=0;top=0;left=0;bottom=0;right=0;collapsible=0;dropTarget=0;fillColor=none;points=[[0,0.5],[1,0.5]];portConstraint=eastwest;fontSize=18;" parent="MEUeXcoPpYQQ2M0SvhKJ-241" vertex="1">
          <mxGeometry width="240" height="40" as="geometry" />
        </mxCell>
        <mxCell id="MEUeXcoPpYQQ2M0SvhKJ-243" value="0" style="shape=partialRectangle;html=1;whiteSpace=wrap;connectable=0;fillColor=none;top=0;left=0;bottom=0;right=0;overflow=hidden;fontSize=18;" parent="MEUeXcoPpYQQ2M0SvhKJ-242" vertex="1">
          <mxGeometry width="60" height="40" as="geometry">
            <mxRectangle width="60" height="40" as="alternateBounds" />
          </mxGeometry>
        </mxCell>
        <mxCell id="MEUeXcoPpYQQ2M0SvhKJ-244" value="5" style="shape=partialRectangle;html=1;whiteSpace=wrap;connectable=0;fillColor=none;top=0;left=0;bottom=0;right=0;overflow=hidden;fontSize=18;" parent="MEUeXcoPpYQQ2M0SvhKJ-242" vertex="1">
          <mxGeometry x="60" width="60" height="40" as="geometry">
            <mxRectangle width="60" height="40" as="alternateBounds" />
          </mxGeometry>
        </mxCell>
        <mxCell id="MEUeXcoPpYQQ2M0SvhKJ-245" value="20" style="shape=partialRectangle;html=1;whiteSpace=wrap;connectable=0;fillColor=none;top=0;left=0;bottom=0;right=0;overflow=hidden;fontSize=18;" parent="MEUeXcoPpYQQ2M0SvhKJ-242" vertex="1">
          <mxGeometry x="120" width="60" height="40" as="geometry">
            <mxRectangle width="60" height="40" as="alternateBounds" />
          </mxGeometry>
        </mxCell>
        <mxCell id="MEUeXcoPpYQQ2M0SvhKJ-246" value="10" style="shape=partialRectangle;html=1;whiteSpace=wrap;connectable=0;fillColor=none;top=0;left=0;bottom=0;right=0;overflow=hidden;fontSize=18;" parent="MEUeXcoPpYQQ2M0SvhKJ-242" vertex="1">
          <mxGeometry x="180" width="60" height="40" as="geometry">
            <mxRectangle width="60" height="40" as="alternateBounds" />
          </mxGeometry>
        </mxCell>
        <mxCell id="MEUeXcoPpYQQ2M0SvhKJ-247" value="" style="shape=tableRow;horizontal=0;startSize=0;swimlaneHead=0;swimlaneBody=0;top=0;left=0;bottom=0;right=0;collapsible=0;dropTarget=0;fillColor=none;points=[[0,0.5],[1,0.5]];portConstraint=eastwest;fontSize=18;" parent="MEUeXcoPpYQQ2M0SvhKJ-241" vertex="1">
          <mxGeometry y="40" width="240" height="40" as="geometry" />
        </mxCell>
        <mxCell id="MEUeXcoPpYQQ2M0SvhKJ-248" value="45" style="shape=partialRectangle;html=1;whiteSpace=wrap;connectable=0;fillColor=none;top=0;left=0;bottom=0;right=0;overflow=hidden;fontSize=18;" parent="MEUeXcoPpYQQ2M0SvhKJ-247" vertex="1">
          <mxGeometry width="60" height="40" as="geometry">
            <mxRectangle width="60" height="40" as="alternateBounds" />
          </mxGeometry>
        </mxCell>
        <mxCell id="MEUeXcoPpYQQ2M0SvhKJ-249" value="0" style="shape=partialRectangle;html=1;whiteSpace=wrap;connectable=0;fillColor=none;top=0;left=0;bottom=0;right=0;overflow=hidden;fontSize=18;" parent="MEUeXcoPpYQQ2M0SvhKJ-247" vertex="1">
          <mxGeometry x="60" width="60" height="40" as="geometry">
            <mxRectangle width="60" height="40" as="alternateBounds" />
          </mxGeometry>
        </mxCell>
        <mxCell id="MEUeXcoPpYQQ2M0SvhKJ-250" value="15" style="shape=partialRectangle;html=1;whiteSpace=wrap;connectable=0;fillColor=none;top=0;left=0;bottom=0;right=0;overflow=hidden;fontSize=18;" parent="MEUeXcoPpYQQ2M0SvhKJ-247" vertex="1">
          <mxGeometry x="120" width="60" height="40" as="geometry">
            <mxRectangle width="60" height="40" as="alternateBounds" />
          </mxGeometry>
        </mxCell>
        <mxCell id="MEUeXcoPpYQQ2M0SvhKJ-251" value="5" style="shape=partialRectangle;html=1;whiteSpace=wrap;connectable=0;fillColor=none;top=0;left=0;bottom=0;right=0;overflow=hidden;fontSize=18;" parent="MEUeXcoPpYQQ2M0SvhKJ-247" vertex="1">
          <mxGeometry x="180" width="60" height="40" as="geometry">
            <mxRectangle width="60" height="40" as="alternateBounds" />
          </mxGeometry>
        </mxCell>
        <mxCell id="MEUeXcoPpYQQ2M0SvhKJ-252" style="shape=tableRow;horizontal=0;startSize=0;swimlaneHead=0;swimlaneBody=0;top=0;left=0;bottom=0;right=0;collapsible=0;dropTarget=0;fillColor=none;points=[[0,0.5],[1,0.5]];portConstraint=eastwest;fontSize=18;" parent="MEUeXcoPpYQQ2M0SvhKJ-241" vertex="1">
          <mxGeometry y="80" width="240" height="40" as="geometry" />
        </mxCell>
        <mxCell id="MEUeXcoPpYQQ2M0SvhKJ-253" value="30" style="shape=partialRectangle;html=1;whiteSpace=wrap;connectable=0;fillColor=none;top=0;left=0;bottom=0;right=0;overflow=hidden;fontSize=18;" parent="MEUeXcoPpYQQ2M0SvhKJ-252" vertex="1">
          <mxGeometry width="60" height="40" as="geometry">
            <mxRectangle width="60" height="40" as="alternateBounds" />
          </mxGeometry>
        </mxCell>
        <mxCell id="MEUeXcoPpYQQ2M0SvhKJ-254" value="35" style="shape=partialRectangle;html=1;whiteSpace=wrap;connectable=0;fillColor=none;top=0;left=0;bottom=0;right=0;overflow=hidden;fontSize=18;" parent="MEUeXcoPpYQQ2M0SvhKJ-252" vertex="1">
          <mxGeometry x="60" width="60" height="40" as="geometry">
            <mxRectangle width="60" height="40" as="alternateBounds" />
          </mxGeometry>
        </mxCell>
        <mxCell id="MEUeXcoPpYQQ2M0SvhKJ-255" value="0" style="shape=partialRectangle;html=1;whiteSpace=wrap;connectable=0;fillColor=none;top=0;left=0;bottom=0;right=0;overflow=hidden;fontSize=18;" parent="MEUeXcoPpYQQ2M0SvhKJ-252" vertex="1">
          <mxGeometry x="120" width="60" height="40" as="geometry">
            <mxRectangle width="60" height="40" as="alternateBounds" />
          </mxGeometry>
        </mxCell>
        <mxCell id="MEUeXcoPpYQQ2M0SvhKJ-256" value="15" style="shape=partialRectangle;html=1;whiteSpace=wrap;connectable=0;fillColor=none;top=0;left=0;bottom=0;right=0;overflow=hidden;fontSize=18;" parent="MEUeXcoPpYQQ2M0SvhKJ-252" vertex="1">
          <mxGeometry x="180" width="60" height="40" as="geometry">
            <mxRectangle width="60" height="40" as="alternateBounds" />
          </mxGeometry>
        </mxCell>
        <mxCell id="MEUeXcoPpYQQ2M0SvhKJ-257" value="" style="shape=tableRow;horizontal=0;startSize=0;swimlaneHead=0;swimlaneBody=0;top=0;left=0;bottom=0;right=0;collapsible=0;dropTarget=0;fillColor=none;points=[[0,0.5],[1,0.5]];portConstraint=eastwest;fontSize=18;" parent="MEUeXcoPpYQQ2M0SvhKJ-241" vertex="1">
          <mxGeometry y="120" width="240" height="40" as="geometry" />
        </mxCell>
        <mxCell id="MEUeXcoPpYQQ2M0SvhKJ-258" value="15" style="shape=partialRectangle;html=1;whiteSpace=wrap;connectable=0;fillColor=none;top=0;left=0;bottom=0;right=0;overflow=hidden;fontSize=18;" parent="MEUeXcoPpYQQ2M0SvhKJ-257" vertex="1">
          <mxGeometry width="60" height="40" as="geometry">
            <mxRectangle width="60" height="40" as="alternateBounds" />
          </mxGeometry>
        </mxCell>
        <mxCell id="MEUeXcoPpYQQ2M0SvhKJ-259" value="20" style="shape=partialRectangle;html=1;whiteSpace=wrap;connectable=0;fillColor=none;top=0;left=0;bottom=0;right=0;overflow=hidden;fontSize=18;" parent="MEUeXcoPpYQQ2M0SvhKJ-257" vertex="1">
          <mxGeometry x="60" width="60" height="40" as="geometry">
            <mxRectangle width="60" height="40" as="alternateBounds" />
          </mxGeometry>
        </mxCell>
        <mxCell id="MEUeXcoPpYQQ2M0SvhKJ-260" value="5" style="shape=partialRectangle;html=1;whiteSpace=wrap;connectable=0;fillColor=none;top=0;left=0;bottom=0;right=0;overflow=hidden;pointerEvents=1;fontSize=18;" parent="MEUeXcoPpYQQ2M0SvhKJ-257" vertex="1">
          <mxGeometry x="120" width="60" height="40" as="geometry">
            <mxRectangle width="60" height="40" as="alternateBounds" />
          </mxGeometry>
        </mxCell>
        <mxCell id="MEUeXcoPpYQQ2M0SvhKJ-261" value="0" style="shape=partialRectangle;html=1;whiteSpace=wrap;connectable=0;fillColor=none;top=0;left=0;bottom=0;right=0;overflow=hidden;pointerEvents=1;fontSize=18;" parent="MEUeXcoPpYQQ2M0SvhKJ-257" vertex="1">
          <mxGeometry x="180" width="60" height="40" as="geometry">
            <mxRectangle width="60" height="40" as="alternateBounds" />
          </mxGeometry>
        </mxCell>
        <mxCell id="MEUeXcoPpYQQ2M0SvhKJ-262" value="A&lt;sup&gt;3&lt;/sup&gt;&lt;sub&gt;&amp;nbsp;&lt;/sub&gt;=" style="text;html=1;align=center;verticalAlign=middle;resizable=0;points=[];autosize=1;strokeColor=none;fillColor=none;fontSize=18;" parent="1" vertex="1">
          <mxGeometry x="220" y="1875" width="50" height="40" as="geometry" />
        </mxCell>
        <mxCell id="MEUeXcoPpYQQ2M0SvhKJ-263" value="A&lt;span style=&quot;font-size: 15.8333px&quot;&gt;&lt;sup&gt;4&lt;/sup&gt;&lt;/span&gt;[1, 3]= min(A&lt;sup&gt;3&lt;/sup&gt;(1,3), A&lt;sup&gt;3&lt;/sup&gt;(1,4)+A&lt;sup&gt;3&lt;/sup&gt;(4,3))&lt;br&gt;= min(20, 10+5) = 15&lt;br&gt;A&lt;span style=&quot;font-size: 15.8333px&quot;&gt;&lt;sup&gt;4&lt;/sup&gt;&lt;/span&gt;[2, 1]= min(A&lt;sup&gt;3&lt;/sup&gt;(2,1), A&lt;sup&gt;3&lt;/sup&gt;(2,4)+A&lt;sup&gt;3&lt;/sup&gt;(4,1))&lt;br&gt;= min(45, 5+15) = 20&lt;br&gt;A&lt;span style=&quot;font-size: 15.8333px&quot;&gt;&lt;sup&gt;4&lt;/sup&gt;&lt;/span&gt;[2, 3]= min(A&lt;sup&gt;3&lt;/sup&gt;(2,3), A&lt;sup&gt;3&lt;/sup&gt;(2,4)+A&lt;sup&gt;3&lt;/sup&gt;(4,3))&lt;br&gt;= min(15, 5+5) = 10" style="text;html=1;align=center;verticalAlign=middle;resizable=0;points=[];autosize=1;strokeColor=none;fillColor=none;fontSize=19;" parent="1" vertex="1">
          <mxGeometry x="585" y="1830" width="340" height="160" as="geometry" />
        </mxCell>
        <mxCell id="MEUeXcoPpYQQ2M0SvhKJ-264" value="" style="shape=table;html=1;whiteSpace=wrap;startSize=0;container=1;collapsible=0;childLayout=tableLayout;fontSize=18;" parent="1" vertex="1">
          <mxGeometry x="1035" y="1830" width="240" height="160" as="geometry" />
        </mxCell>
        <mxCell id="MEUeXcoPpYQQ2M0SvhKJ-265" value="" style="shape=tableRow;horizontal=0;startSize=0;swimlaneHead=0;swimlaneBody=0;top=0;left=0;bottom=0;right=0;collapsible=0;dropTarget=0;fillColor=none;points=[[0,0.5],[1,0.5]];portConstraint=eastwest;fontSize=18;" parent="MEUeXcoPpYQQ2M0SvhKJ-264" vertex="1">
          <mxGeometry width="240" height="40" as="geometry" />
        </mxCell>
        <mxCell id="MEUeXcoPpYQQ2M0SvhKJ-266" value="0" style="shape=partialRectangle;html=1;whiteSpace=wrap;connectable=0;fillColor=none;top=0;left=0;bottom=0;right=0;overflow=hidden;fontSize=18;" parent="MEUeXcoPpYQQ2M0SvhKJ-265" vertex="1">
          <mxGeometry width="60" height="40" as="geometry">
            <mxRectangle width="60" height="40" as="alternateBounds" />
          </mxGeometry>
        </mxCell>
        <mxCell id="MEUeXcoPpYQQ2M0SvhKJ-267" value="5" style="shape=partialRectangle;html=1;whiteSpace=wrap;connectable=0;fillColor=none;top=0;left=0;bottom=0;right=0;overflow=hidden;fontSize=18;" parent="MEUeXcoPpYQQ2M0SvhKJ-265" vertex="1">
          <mxGeometry x="60" width="60" height="40" as="geometry">
            <mxRectangle width="60" height="40" as="alternateBounds" />
          </mxGeometry>
        </mxCell>
        <mxCell id="MEUeXcoPpYQQ2M0SvhKJ-268" value="&lt;span style=&quot;background-color: rgb(255 , 0 , 0)&quot;&gt;15&lt;/span&gt;" style="shape=partialRectangle;html=1;whiteSpace=wrap;connectable=0;fillColor=none;top=0;left=0;bottom=0;right=0;overflow=hidden;fontSize=18;" parent="MEUeXcoPpYQQ2M0SvhKJ-265" vertex="1">
          <mxGeometry x="120" width="60" height="40" as="geometry">
            <mxRectangle width="60" height="40" as="alternateBounds" />
          </mxGeometry>
        </mxCell>
        <mxCell id="MEUeXcoPpYQQ2M0SvhKJ-269" value="10" style="shape=partialRectangle;html=1;whiteSpace=wrap;connectable=0;fillColor=none;top=0;left=0;bottom=0;right=0;overflow=hidden;fontSize=18;" parent="MEUeXcoPpYQQ2M0SvhKJ-265" vertex="1">
          <mxGeometry x="180" width="60" height="40" as="geometry">
            <mxRectangle width="60" height="40" as="alternateBounds" />
          </mxGeometry>
        </mxCell>
        <mxCell id="MEUeXcoPpYQQ2M0SvhKJ-270" value="" style="shape=tableRow;horizontal=0;startSize=0;swimlaneHead=0;swimlaneBody=0;top=0;left=0;bottom=0;right=0;collapsible=0;dropTarget=0;fillColor=none;points=[[0,0.5],[1,0.5]];portConstraint=eastwest;fontSize=18;" parent="MEUeXcoPpYQQ2M0SvhKJ-264" vertex="1">
          <mxGeometry y="40" width="240" height="40" as="geometry" />
        </mxCell>
        <mxCell id="MEUeXcoPpYQQ2M0SvhKJ-271" value="&lt;span style=&quot;background-color: rgb(255 , 0 , 0)&quot;&gt;20&lt;/span&gt;" style="shape=partialRectangle;html=1;whiteSpace=wrap;connectable=0;fillColor=none;top=0;left=0;bottom=0;right=0;overflow=hidden;fontSize=18;" parent="MEUeXcoPpYQQ2M0SvhKJ-270" vertex="1">
          <mxGeometry width="60" height="40" as="geometry">
            <mxRectangle width="60" height="40" as="alternateBounds" />
          </mxGeometry>
        </mxCell>
        <mxCell id="MEUeXcoPpYQQ2M0SvhKJ-272" value="0" style="shape=partialRectangle;html=1;whiteSpace=wrap;connectable=0;fillColor=none;top=0;left=0;bottom=0;right=0;overflow=hidden;fontSize=18;" parent="MEUeXcoPpYQQ2M0SvhKJ-270" vertex="1">
          <mxGeometry x="60" width="60" height="40" as="geometry">
            <mxRectangle width="60" height="40" as="alternateBounds" />
          </mxGeometry>
        </mxCell>
        <mxCell id="MEUeXcoPpYQQ2M0SvhKJ-273" value="&lt;font style=&quot;background-color: rgb(255 , 0 , 0)&quot;&gt;10&lt;/font&gt;" style="shape=partialRectangle;html=1;whiteSpace=wrap;connectable=0;fillColor=none;top=0;left=0;bottom=0;right=0;overflow=hidden;fontSize=18;" parent="MEUeXcoPpYQQ2M0SvhKJ-270" vertex="1">
          <mxGeometry x="120" width="60" height="40" as="geometry">
            <mxRectangle width="60" height="40" as="alternateBounds" />
          </mxGeometry>
        </mxCell>
        <mxCell id="MEUeXcoPpYQQ2M0SvhKJ-274" value="5" style="shape=partialRectangle;html=1;whiteSpace=wrap;connectable=0;fillColor=none;top=0;left=0;bottom=0;right=0;overflow=hidden;fontSize=18;" parent="MEUeXcoPpYQQ2M0SvhKJ-270" vertex="1">
          <mxGeometry x="180" width="60" height="40" as="geometry">
            <mxRectangle width="60" height="40" as="alternateBounds" />
          </mxGeometry>
        </mxCell>
        <mxCell id="MEUeXcoPpYQQ2M0SvhKJ-275" style="shape=tableRow;horizontal=0;startSize=0;swimlaneHead=0;swimlaneBody=0;top=0;left=0;bottom=0;right=0;collapsible=0;dropTarget=0;fillColor=none;points=[[0,0.5],[1,0.5]];portConstraint=eastwest;fontSize=18;" parent="MEUeXcoPpYQQ2M0SvhKJ-264" vertex="1">
          <mxGeometry y="80" width="240" height="40" as="geometry" />
        </mxCell>
        <mxCell id="MEUeXcoPpYQQ2M0SvhKJ-276" value="30" style="shape=partialRectangle;html=1;whiteSpace=wrap;connectable=0;fillColor=none;top=0;left=0;bottom=0;right=0;overflow=hidden;fontSize=18;" parent="MEUeXcoPpYQQ2M0SvhKJ-275" vertex="1">
          <mxGeometry width="60" height="40" as="geometry">
            <mxRectangle width="60" height="40" as="alternateBounds" />
          </mxGeometry>
        </mxCell>
        <mxCell id="MEUeXcoPpYQQ2M0SvhKJ-277" value="35" style="shape=partialRectangle;html=1;whiteSpace=wrap;connectable=0;fillColor=none;top=0;left=0;bottom=0;right=0;overflow=hidden;fontSize=18;" parent="MEUeXcoPpYQQ2M0SvhKJ-275" vertex="1">
          <mxGeometry x="60" width="60" height="40" as="geometry">
            <mxRectangle width="60" height="40" as="alternateBounds" />
          </mxGeometry>
        </mxCell>
        <mxCell id="MEUeXcoPpYQQ2M0SvhKJ-278" value="0" style="shape=partialRectangle;html=1;whiteSpace=wrap;connectable=0;fillColor=none;top=0;left=0;bottom=0;right=0;overflow=hidden;fontSize=18;" parent="MEUeXcoPpYQQ2M0SvhKJ-275" vertex="1">
          <mxGeometry x="120" width="60" height="40" as="geometry">
            <mxRectangle width="60" height="40" as="alternateBounds" />
          </mxGeometry>
        </mxCell>
        <mxCell id="MEUeXcoPpYQQ2M0SvhKJ-279" value="15" style="shape=partialRectangle;html=1;whiteSpace=wrap;connectable=0;fillColor=none;top=0;left=0;bottom=0;right=0;overflow=hidden;fontSize=18;" parent="MEUeXcoPpYQQ2M0SvhKJ-275" vertex="1">
          <mxGeometry x="180" width="60" height="40" as="geometry">
            <mxRectangle width="60" height="40" as="alternateBounds" />
          </mxGeometry>
        </mxCell>
        <mxCell id="MEUeXcoPpYQQ2M0SvhKJ-280" value="" style="shape=tableRow;horizontal=0;startSize=0;swimlaneHead=0;swimlaneBody=0;top=0;left=0;bottom=0;right=0;collapsible=0;dropTarget=0;fillColor=none;points=[[0,0.5],[1,0.5]];portConstraint=eastwest;fontSize=18;" parent="MEUeXcoPpYQQ2M0SvhKJ-264" vertex="1">
          <mxGeometry y="120" width="240" height="40" as="geometry" />
        </mxCell>
        <mxCell id="MEUeXcoPpYQQ2M0SvhKJ-281" value="15" style="shape=partialRectangle;html=1;whiteSpace=wrap;connectable=0;fillColor=none;top=0;left=0;bottom=0;right=0;overflow=hidden;fontSize=18;" parent="MEUeXcoPpYQQ2M0SvhKJ-280" vertex="1">
          <mxGeometry width="60" height="40" as="geometry">
            <mxRectangle width="60" height="40" as="alternateBounds" />
          </mxGeometry>
        </mxCell>
        <mxCell id="MEUeXcoPpYQQ2M0SvhKJ-282" value="20" style="shape=partialRectangle;html=1;whiteSpace=wrap;connectable=0;fillColor=none;top=0;left=0;bottom=0;right=0;overflow=hidden;fontSize=18;" parent="MEUeXcoPpYQQ2M0SvhKJ-280" vertex="1">
          <mxGeometry x="60" width="60" height="40" as="geometry">
            <mxRectangle width="60" height="40" as="alternateBounds" />
          </mxGeometry>
        </mxCell>
        <mxCell id="MEUeXcoPpYQQ2M0SvhKJ-283" value="5" style="shape=partialRectangle;html=1;whiteSpace=wrap;connectable=0;fillColor=none;top=0;left=0;bottom=0;right=0;overflow=hidden;pointerEvents=1;fontSize=18;" parent="MEUeXcoPpYQQ2M0SvhKJ-280" vertex="1">
          <mxGeometry x="120" width="60" height="40" as="geometry">
            <mxRectangle width="60" height="40" as="alternateBounds" />
          </mxGeometry>
        </mxCell>
        <mxCell id="MEUeXcoPpYQQ2M0SvhKJ-284" value="0" style="shape=partialRectangle;html=1;whiteSpace=wrap;connectable=0;fillColor=none;top=0;left=0;bottom=0;right=0;overflow=hidden;pointerEvents=1;fontSize=18;" parent="MEUeXcoPpYQQ2M0SvhKJ-280" vertex="1">
          <mxGeometry x="180" width="60" height="40" as="geometry">
            <mxRectangle width="60" height="40" as="alternateBounds" />
          </mxGeometry>
        </mxCell>
        <mxCell id="MEUeXcoPpYQQ2M0SvhKJ-285" value="A&lt;sup&gt;4&lt;/sup&gt;&lt;sub&gt;&amp;nbsp;&lt;/sub&gt;=" style="text;html=1;align=center;verticalAlign=middle;resizable=0;points=[];autosize=1;strokeColor=none;fillColor=none;fontSize=18;" parent="1" vertex="1">
          <mxGeometry x="960" y="1885" width="50" height="40" as="geometry" />
        </mxCell>
      </root>
    </mxGraphModel>
  </diagram>
</mxfile>
